<?xml version="1.0" encoding="utf-8"?>
<!-- Generator: Adobe Illustrator 19.2.0, SVG Export Plug-In . SVG Version: 6.00 Build 0)  -->
<svg version="1.1" id="Laag_1" xmlns="http://www.w3.org/2000/svg" xmlns:xlink="http://www.w3.org/1999/xlink" x="0px" y="0px"
	 viewBox="0 0 2097 1130.9" style="enable-background:new 0 0 2097 1130.9;" xml:space="preserve">
<style type="text/css">
	.st0{fill:#F9BA2B;}
</style>
<g>
	<title>degree-background-pattern</title>
	<rect x="-1521.2" y="0" class="st0" width="1" height="1130.9"/>
	<rect x="-1378.5" y="0" class="st0" width="1" height="1130.9"/>
	<rect x="-1235.7" y="0" class="st0" width="1" height="1130.9"/>
	<rect x="-1093" y="0" class="st0" width="1" height="1130.9"/>
	<rect x="-950.3" y="0" class="st0" width="1" height="1130.9"/>
	<rect x="-807.5" y="0" class="st0" width="1" height="1130.9"/>
	<rect x="-664.8" y="0" class="st0" width="1" height="1130.9"/>
	<rect x="-522.1" y="0" class="st0" width="1" height="1130.9"/>
	<rect x="-379.3" y="0" class="st0" width="1" height="1130.9"/>
	<rect x="-236.6" y="0" class="st0" width="1" height="1130.9"/>
	<rect x="-93.9" y="0" class="st0" width="1" height="1130.9"/>
	<rect x="48.9" y="0" class="st0" width="1" height="1130.9"/>
	<rect x="191.6" y="0" class="st0" width="1" height="1130.9"/>
	<rect x="334.3" y="0" class="st0" width="1" height="1130.9"/>
	<rect x="477.1" y="0" class="st0" width="1" height="1130.9"/>
	<rect x="619.8" y="0" class="st0" width="1" height="1130.9"/>
	<rect x="762.5" y="0" class="st0" width="1" height="1130.9"/>
	<rect x="905.3" y="0" class="st0" width="1" height="1130.9"/>
	<rect x="1048" y="0" class="st0" width="1" height="1130.9"/>
	<rect x="1190.7" y="0" class="st0" width="1" height="1130.9"/>
	<rect x="1333.5" y="0" class="st0" width="1" height="1130.9"/>
	<rect x="1476.2" y="0" class="st0" width="1" height="1130.9"/>
	<rect x="1618.9" y="0" class="st0" width="1" height="1130.9"/>
	<rect x="1761.7" y="0" class="st0" width="1" height="1130.9"/>
	<rect x="1904.4" y="0" class="st0" width="1" height="1130.9"/>
	<rect x="2047.1" y="0" class="st0" width="1" height="1130.9"/>
	<rect x="2189.9" y="0" class="st0" width="1" height="1130.9"/>
	<rect x="2332.6" y="0" class="st0" width="1" height="1130.9"/>
	<rect x="2475.3" y="0" class="st0" width="1" height="1130.9"/>
	<rect x="2618" y="0" class="st0" width="1" height="1130.9"/>
	<rect x="2760.8" y="0" class="st0" width="1" height="1130.9"/>
	<rect x="2903.5" y="0" class="st0" width="1" height="1130.9"/>
	<rect x="3046.2" y="0" class="st0" width="1" height="1130.9"/>
	<rect x="3189" y="0" class="st0" width="1" height="1130.9"/>
	<rect x="3331.7" y="0" class="st0" width="1" height="1130.9"/>
	<rect x="3474.4" y="0" class="st0" width="1" height="1130.9"/>
	<rect x="3617.2" y="0" class="st0" width="1" height="1130.9"/>
</g>
</svg>
