<svg id="Laag_1" data-name="Laag 1" xmlns="http://www.w3.org/2000/svg" width="739.77mm" height="398.95mm" viewBox="0 0 2096.98 1130.88"><defs><style>.cls-1{fill:#f9ba2b;}</style></defs><title>degree-background-pattern</title><rect class="cls-1" width="1" height="1130.88"/><rect class="cls-1" x="58.22" width="1" height="1130.88"/><rect class="cls-1" x="116.44" width="1" height="1130.88"/><rect class="cls-1" x="174.66" width="1" height="1130.88"/><rect class="cls-1" x="232.89" width="1" height="1130.88"/><rect class="cls-1" x="291.11" width="1" height="1130.88"/><rect class="cls-1" x="349.33" width="1" height="1130.88"/><rect class="cls-1" x="407.55" width="1" height="1130.88"/><rect class="cls-1" x="465.77" width="1" height="1130.88"/><rect class="cls-1" x="523.99" width="1" height="1130.88"/><rect class="cls-1" x="582.22" width="1" height="1130.88"/><rect class="cls-1" x="640.44" width="1" height="1130.88"/><rect class="cls-1" x="698.66" width="1" height="1130.88"/><rect class="cls-1" x="756.88" width="1" height="1130.88"/><rect class="cls-1" x="815.1" width="1" height="1130.88"/><rect class="cls-1" x="873.32" width="1" height="1130.88"/><rect class="cls-1" x="931.54" width="1" height="1130.88"/><rect class="cls-1" x="989.77" width="1" height="1130.88"/><rect class="cls-1" x="1047.99" width="1" height="1130.88"/><rect class="cls-1" x="1106.21" width="1" height="1130.88"/><rect class="cls-1" x="1164.43" width="1" height="1130.88"/><rect class="cls-1" x="1222.65" width="1" height="1130.88"/><rect class="cls-1" x="1280.87" width="1" height="1130.88"/><rect class="cls-1" x="1339.1" width="1" height="1130.88"/><rect class="cls-1" x="1397.32" width="1" height="1130.88"/><rect class="cls-1" x="1455.54" width="1" height="1130.88"/><rect class="cls-1" x="1513.76" width="1" height="1130.88"/><rect class="cls-1" x="1571.98" width="1" height="1130.88"/><rect class="cls-1" x="1630.2" width="1" height="1130.88"/><rect class="cls-1" x="1688.43" width="1" height="1130.88"/><rect class="cls-1" x="1746.65" width="1" height="1130.88"/><rect class="cls-1" x="1804.87" width="1" height="1130.88"/><rect class="cls-1" x="1863.09" width="1" height="1130.88"/><rect class="cls-1" x="1921.31" width="1" height="1130.88"/><rect class="cls-1" x="1979.53" width="1" height="1130.88"/><rect class="cls-1" x="2037.76" width="1" height="1130.88"/><rect class="cls-1" x="2095.98" width="1" height="1130.88"/></svg>