<svg id="Laag_1" data-name="Laag 1" xmlns="http://www.w3.org/2000/svg" width="481.61mm" height="307.54mm" viewBox="0 0 1365.19 871.75"><defs><style>.cls-1{fill:#f9ba2b;}</style></defs><title>degree-background-pattern</title><polygon class="cls-1" points="65.2 23.62 56.72 15.14 48.4 23.45 39.75 14.8 31.5 23.06 30.59 22.15 39.75 12.98 48.4 21.63 56.72 13.32 65.2 21.8 73.2 13.81 81.91 22.52 81 23.43 73.2 15.63 65.2 23.62"/><path class="cls-1" d="M171.19,109.35l-20.69-8.79,18-13.53Zm-18.14-9.1,16.59,7L167.45,89.4Z" transform="translate(0 -11.59)"/><path class="cls-1" d="M143.15,26.64a7.53,7.53,0,1,1,7.53-7.53A7.53,7.53,0,0,1,143.15,26.64Zm0-13.76a6.24,6.24,0,1,0,6.24,6.24A6.24,6.24,0,0,0,143.15,12.88Z" transform="translate(0 -11.59)"/><path class="cls-1" d="M96.72,93.15a3.75,3.75,0,1,1,3.75-3.75A3.75,3.75,0,0,1,96.72,93.15Zm0-6.86a3.11,3.11,0,1,0,3.11,3.11A3.11,3.11,0,0,0,96.72,86.3Z" transform="translate(0 -11.59)"/><rect class="cls-1" x="0.98" y="62.19" width="9.58" height="9.58" transform="translate(-15.29 -8.46) rotate(-13.33)"/><polygon class="cls-1" points="65.2 152.62 56.72 144.14 48.4 152.45 39.75 143.8 31.5 152.06 30.59 151.15 39.75 141.98 48.4 150.63 56.72 142.32 65.2 150.8 73.2 142.81 81.91 151.52 81 152.43 73.2 144.63 65.2 152.62"/><path class="cls-1" d="M171.19,238.35l-20.69-8.79,18-13.53Zm-18.14-9.1,16.59,7-2.19-17.89Z" transform="translate(0 -11.59)"/><path class="cls-1" d="M143.15,155.64a7.53,7.53,0,1,1,7.53-7.53A7.53,7.53,0,0,1,143.15,155.64Zm0-13.76a6.24,6.24,0,1,0,6.24,6.24A6.24,6.24,0,0,0,143.15,141.88Z" transform="translate(0 -11.59)"/><path class="cls-1" d="M96.72,222.15a3.75,3.75,0,1,1,3.75-3.75A3.75,3.75,0,0,1,96.72,222.15Zm0-6.86a3.11,3.11,0,1,0,3.11,3.11A3.11,3.11,0,0,0,96.72,215.3Z" transform="translate(0 -11.59)"/><rect class="cls-1" x="0.98" y="191.19" width="9.58" height="9.58" transform="translate(-45.04 -4.98) rotate(-13.33)"/><polygon class="cls-1" points="65.2 281.62 56.72 273.14 48.4 281.45 39.75 272.8 31.5 281.06 30.59 280.15 39.75 270.98 48.4 279.63 56.72 271.32 65.2 279.8 73.2 271.81 81.91 280.52 81 281.43 73.2 273.63 65.2 281.62"/><path class="cls-1" d="M171.19,367.35l-20.69-8.79,18-13.53Zm-18.14-9.1,16.59,7-2.19-17.89Z" transform="translate(0 -11.59)"/><path class="cls-1" d="M143.15,284.64a7.53,7.53,0,1,1,7.53-7.53A7.53,7.53,0,0,1,143.15,284.64Zm0-13.76a6.24,6.24,0,1,0,6.24,6.24A6.24,6.24,0,0,0,143.15,270.88Z" transform="translate(0 -11.59)"/><path class="cls-1" d="M96.72,351.15a3.75,3.75,0,1,1,3.75-3.75A3.75,3.75,0,0,1,96.72,351.15Zm0-6.86a3.11,3.11,0,1,0,3.11,3.11A3.11,3.11,0,0,0,96.72,344.3Z" transform="translate(0 -11.59)"/><rect class="cls-1" x="0.98" y="320.19" width="9.58" height="9.58" transform="translate(-74.79 -1.5) rotate(-13.33)"/><polygon class="cls-1" points="65.2 410.62 56.72 402.14 48.4 410.45 39.75 401.8 31.5 410.06 30.59 409.15 39.75 399.98 48.4 408.63 56.72 400.32 65.2 408.8 73.2 400.81 81.91 409.52 81 410.43 73.2 402.63 65.2 410.62"/><path class="cls-1" d="M171.19,496.35l-20.69-8.79,18-13.53Zm-18.14-9.1,16.59,7-2.19-17.89Z" transform="translate(0 -11.59)"/><path class="cls-1" d="M143.15,413.64a7.53,7.53,0,1,1,7.53-7.53A7.53,7.53,0,0,1,143.15,413.64Zm0-13.76a6.24,6.24,0,1,0,6.24,6.24A6.24,6.24,0,0,0,143.15,399.88Z" transform="translate(0 -11.59)"/><path class="cls-1" d="M96.72,480.15a3.75,3.75,0,1,1,3.75-3.75A3.75,3.75,0,0,1,96.72,480.15Zm0-6.86a3.11,3.11,0,1,0,3.11,3.11A3.11,3.11,0,0,0,96.72,473.3Z" transform="translate(0 -11.59)"/><rect class="cls-1" x="0.98" y="449.19" width="9.58" height="9.58" transform="translate(-104.53 1.97) rotate(-13.33)"/><polygon class="cls-1" points="65.2 539.62 56.72 531.14 48.4 539.45 39.75 530.8 31.5 539.06 30.59 538.15 39.75 528.98 48.4 537.63 56.72 529.32 65.2 537.8 73.2 529.81 81.91 538.52 81 539.43 73.2 531.63 65.2 539.62"/><path class="cls-1" d="M171.19,625.35l-20.69-8.79,18-13.53Zm-18.14-9.1,16.59,7-2.19-17.89Z" transform="translate(0 -11.59)"/><path class="cls-1" d="M143.15,542.64a7.53,7.53,0,1,1,7.53-7.53A7.53,7.53,0,0,1,143.15,542.64Zm0-13.76a6.24,6.24,0,1,0,6.24,6.24A6.24,6.24,0,0,0,143.15,528.88Z" transform="translate(0 -11.59)"/><path class="cls-1" d="M96.72,609.15a3.75,3.75,0,1,1,3.75-3.75A3.75,3.75,0,0,1,96.72,609.15Zm0-6.86a3.11,3.11,0,1,0,3.11,3.11A3.11,3.11,0,0,0,96.72,602.3Z" transform="translate(0 -11.59)"/><rect class="cls-1" x="0.98" y="578.19" width="9.58" height="9.58" transform="translate(-134.28 5.45) rotate(-13.33)"/><polygon class="cls-1" points="65.2 668.62 56.72 660.14 48.4 668.45 39.75 659.8 31.5 668.06 30.59 667.15 39.75 657.98 48.4 666.63 56.72 658.32 65.2 666.8 73.2 658.81 81.91 667.52 81 668.43 73.2 660.63 65.2 668.62"/><path class="cls-1" d="M171.19,754.35l-20.69-8.79,18-13.53Zm-18.14-9.1,16.59,7-2.19-17.89Z" transform="translate(0 -11.59)"/><path class="cls-1" d="M143.15,671.64a7.53,7.53,0,1,1,7.53-7.53A7.53,7.53,0,0,1,143.15,671.64Zm0-13.76a6.24,6.24,0,1,0,6.24,6.24A6.24,6.24,0,0,0,143.15,657.88Z" transform="translate(0 -11.59)"/><path class="cls-1" d="M96.72,738.15a3.75,3.75,0,1,1,3.75-3.75A3.75,3.75,0,0,1,96.72,738.15Zm0-6.86a3.11,3.11,0,1,0,3.11,3.11A3.11,3.11,0,0,0,96.72,731.3Z" transform="translate(0 -11.59)"/><rect class="cls-1" x="0.98" y="707.19" width="9.58" height="9.58" transform="translate(-164.03 8.93) rotate(-13.33)"/><polygon class="cls-1" points="65.2 797.62 56.72 789.14 48.4 797.45 39.75 788.8 31.5 797.06 30.59 796.15 39.75 786.98 48.4 795.63 56.72 787.32 65.2 795.8 73.2 787.81 81.91 796.52 81 797.43 73.2 789.63 65.2 797.62"/><path class="cls-1" d="M171.19,883.35l-20.69-8.79,18-13.53Zm-18.14-9.1,16.59,7-2.19-17.89Z" transform="translate(0 -11.59)"/><path class="cls-1" d="M143.15,800.64a7.53,7.53,0,1,1,7.53-7.53A7.53,7.53,0,0,1,143.15,800.64Zm0-13.76a6.24,6.24,0,1,0,6.24,6.24A6.24,6.24,0,0,0,143.15,786.88Z" transform="translate(0 -11.59)"/><path class="cls-1" d="M96.72,867.15a3.75,3.75,0,1,1,3.75-3.75A3.75,3.75,0,0,1,96.72,867.15Zm0-6.86a3.11,3.11,0,1,0,3.11,3.11A3.11,3.11,0,0,0,96.72,860.3Z" transform="translate(0 -11.59)"/><rect class="cls-1" x="0.98" y="836.19" width="9.58" height="9.58" transform="translate(-193.78 12.4) rotate(-13.33)"/><polygon class="cls-1" points="263.2 23.62 254.72 15.14 246.4 23.45 237.75 14.8 229.5 23.06 228.59 22.15 237.75 12.98 246.4 21.63 254.72 13.32 263.2 21.8 271.2 13.81 279.91 22.52 279 23.43 271.2 15.63 263.2 23.62"/><path class="cls-1" d="M369.19,109.35l-20.69-8.79,18-13.53Zm-18.14-9.1,16.59,7L365.45,89.4Z" transform="translate(0 -11.59)"/><path class="cls-1" d="M341.15,26.64a7.53,7.53,0,1,1,7.53-7.53A7.53,7.53,0,0,1,341.15,26.64Zm0-13.76a6.24,6.24,0,1,0,6.24,6.24A6.24,6.24,0,0,0,341.15,12.88Z" transform="translate(0 -11.59)"/><path class="cls-1" d="M294.72,93.15a3.75,3.75,0,1,1,3.75-3.75A3.75,3.75,0,0,1,294.72,93.15Zm0-6.86a3.11,3.11,0,1,0,3.11,3.11A3.11,3.11,0,0,0,294.72,86.3Z" transform="translate(0 -11.59)"/><rect class="cls-1" x="198.98" y="62.19" width="9.58" height="9.58" transform="translate(-9.95 37.2) rotate(-13.33)"/><polygon class="cls-1" points="263.2 152.62 254.72 144.14 246.4 152.45 237.75 143.8 229.5 152.06 228.59 151.15 237.75 141.98 246.4 150.63 254.72 142.32 263.2 150.8 271.2 142.81 279.91 151.52 279 152.43 271.2 144.63 263.2 152.62"/><path class="cls-1" d="M369.19,238.35l-20.69-8.79,18-13.53Zm-18.14-9.1,16.59,7-2.19-17.89Z" transform="translate(0 -11.59)"/><path class="cls-1" d="M341.15,155.64a7.53,7.53,0,1,1,7.53-7.53A7.53,7.53,0,0,1,341.15,155.64Zm0-13.76a6.24,6.24,0,1,0,6.24,6.24A6.24,6.24,0,0,0,341.15,141.88Z" transform="translate(0 -11.59)"/><path class="cls-1" d="M294.72,222.15a3.75,3.75,0,1,1,3.75-3.75A3.75,3.75,0,0,1,294.72,222.15Zm0-6.86a3.11,3.11,0,1,0,3.11,3.11A3.11,3.11,0,0,0,294.72,215.3Z" transform="translate(0 -11.59)"/><rect class="cls-1" x="198.98" y="191.19" width="9.58" height="9.58" transform="translate(-39.7 40.68) rotate(-13.33)"/><polygon class="cls-1" points="263.2 281.62 254.72 273.14 246.4 281.45 237.75 272.8 229.5 281.06 228.59 280.15 237.75 270.98 246.4 279.63 254.72 271.32 263.2 279.8 271.2 271.81 279.91 280.52 279 281.43 271.2 273.63 263.2 281.62"/><path class="cls-1" d="M369.19,367.35l-20.69-8.79,18-13.53Zm-18.14-9.1,16.59,7-2.19-17.89Z" transform="translate(0 -11.59)"/><path class="cls-1" d="M341.15,284.64a7.53,7.53,0,1,1,7.53-7.53A7.53,7.53,0,0,1,341.15,284.64Zm0-13.76a6.24,6.24,0,1,0,6.24,6.24A6.24,6.24,0,0,0,341.15,270.88Z" transform="translate(0 -11.59)"/><path class="cls-1" d="M294.72,351.15a3.75,3.75,0,1,1,3.75-3.75A3.75,3.75,0,0,1,294.72,351.15Zm0-6.86a3.11,3.11,0,1,0,3.11,3.11A3.11,3.11,0,0,0,294.72,344.3Z" transform="translate(0 -11.59)"/><rect class="cls-1" x="198.98" y="320.19" width="9.58" height="9.58" transform="translate(-69.45 44.16) rotate(-13.33)"/><polygon class="cls-1" points="263.2 410.62 254.72 402.14 246.4 410.45 237.75 401.8 229.5 410.06 228.59 409.15 237.75 399.98 246.4 408.63 254.72 400.32 263.2 408.8 271.2 400.81 279.91 409.52 279 410.43 271.2 402.63 263.2 410.62"/><path class="cls-1" d="M369.19,496.35l-20.69-8.79,18-13.53Zm-18.14-9.1,16.59,7-2.19-17.89Z" transform="translate(0 -11.59)"/><path class="cls-1" d="M341.15,413.64a7.53,7.53,0,1,1,7.53-7.53A7.53,7.53,0,0,1,341.15,413.64Zm0-13.76a6.24,6.24,0,1,0,6.24,6.24A6.24,6.24,0,0,0,341.15,399.88Z" transform="translate(0 -11.59)"/><path class="cls-1" d="M294.72,480.15a3.75,3.75,0,1,1,3.75-3.75A3.75,3.75,0,0,1,294.72,480.15Zm0-6.86a3.11,3.11,0,1,0,3.11,3.11A3.11,3.11,0,0,0,294.72,473.3Z" transform="translate(0 -11.59)"/><rect class="cls-1" x="198.98" y="449.19" width="9.58" height="9.58" transform="translate(-99.2 47.63) rotate(-13.33)"/><polygon class="cls-1" points="263.2 539.62 254.72 531.14 246.4 539.45 237.75 530.8 229.5 539.06 228.59 538.15 237.75 528.98 246.4 537.63 254.72 529.32 263.2 537.8 271.2 529.81 279.91 538.52 279 539.43 271.2 531.63 263.2 539.62"/><path class="cls-1" d="M369.19,625.35l-20.69-8.79,18-13.53Zm-18.14-9.1,16.59,7-2.19-17.89Z" transform="translate(0 -11.59)"/><path class="cls-1" d="M341.15,542.64a7.53,7.53,0,1,1,7.53-7.53A7.53,7.53,0,0,1,341.15,542.64Zm0-13.76a6.24,6.24,0,1,0,6.24,6.24A6.24,6.24,0,0,0,341.15,528.88Z" transform="translate(0 -11.59)"/><path class="cls-1" d="M294.72,609.15a3.75,3.75,0,1,1,3.75-3.75A3.75,3.75,0,0,1,294.72,609.15Zm0-6.86a3.11,3.11,0,1,0,3.11,3.11A3.11,3.11,0,0,0,294.72,602.3Z" transform="translate(0 -11.59)"/><rect class="cls-1" x="198.98" y="578.19" width="9.58" height="9.58" transform="translate(-128.95 51.11) rotate(-13.33)"/><polygon class="cls-1" points="263.2 668.62 254.72 660.14 246.4 668.45 237.75 659.8 229.5 668.06 228.59 667.15 237.75 657.98 246.4 666.63 254.72 658.32 263.2 666.8 271.2 658.81 279.91 667.52 279 668.43 271.2 660.63 263.2 668.62"/><path class="cls-1" d="M369.19,754.35l-20.69-8.79,18-13.53Zm-18.14-9.1,16.59,7-2.19-17.89Z" transform="translate(0 -11.59)"/><path class="cls-1" d="M341.15,671.64a7.53,7.53,0,1,1,7.53-7.53A7.53,7.53,0,0,1,341.15,671.64Zm0-13.76a6.24,6.24,0,1,0,6.24,6.24A6.24,6.24,0,0,0,341.15,657.88Z" transform="translate(0 -11.59)"/><path class="cls-1" d="M294.72,738.15a3.75,3.75,0,1,1,3.75-3.75A3.75,3.75,0,0,1,294.72,738.15Zm0-6.86a3.11,3.11,0,1,0,3.11,3.11A3.11,3.11,0,0,0,294.72,731.3Z" transform="translate(0 -11.59)"/><rect class="cls-1" x="198.98" y="707.19" width="9.58" height="9.58" transform="translate(-158.69 54.59) rotate(-13.33)"/><polygon class="cls-1" points="263.2 797.62 254.72 789.14 246.4 797.45 237.75 788.8 229.5 797.06 228.59 796.15 237.75 786.98 246.4 795.63 254.72 787.32 263.2 795.8 271.2 787.81 279.91 796.52 279 797.43 271.2 789.63 263.2 797.62"/><path class="cls-1" d="M369.19,883.35l-20.69-8.79,18-13.53Zm-18.14-9.1,16.59,7-2.19-17.89Z" transform="translate(0 -11.59)"/><path class="cls-1" d="M341.15,800.64a7.53,7.53,0,1,1,7.53-7.53A7.53,7.53,0,0,1,341.15,800.64Zm0-13.76a6.24,6.24,0,1,0,6.24,6.24A6.24,6.24,0,0,0,341.15,786.88Z" transform="translate(0 -11.59)"/><path class="cls-1" d="M294.72,867.15a3.75,3.75,0,1,1,3.75-3.75A3.75,3.75,0,0,1,294.72,867.15Zm0-6.86a3.11,3.11,0,1,0,3.11,3.11A3.11,3.11,0,0,0,294.72,860.3Z" transform="translate(0 -11.59)"/><rect class="cls-1" x="198.98" y="836.19" width="9.58" height="9.58" transform="translate(-188.44 58.06) rotate(-13.33)"/><polygon class="cls-1" points="461.2 23.62 452.71 15.14 444.4 23.45 435.75 14.8 427.5 23.06 426.59 22.15 435.75 12.98 444.4 21.63 452.71 13.32 461.2 21.8 469.2 13.81 477.91 22.52 477 23.43 469.2 15.63 461.2 23.62"/><path class="cls-1" d="M567.19,109.35l-20.69-8.79,18-13.53Zm-18.14-9.1,16.59,7L563.45,89.4Z" transform="translate(0 -11.59)"/><path class="cls-1" d="M539.15,26.64a7.53,7.53,0,1,1,7.53-7.53A7.53,7.53,0,0,1,539.15,26.64Zm0-13.76a6.24,6.24,0,1,0,6.24,6.24A6.24,6.24,0,0,0,539.15,12.88Z" transform="translate(0 -11.59)"/><path class="cls-1" d="M492.72,93.15a3.75,3.75,0,1,1,3.75-3.75A3.75,3.75,0,0,1,492.72,93.15Zm0-6.86a3.11,3.11,0,1,0,3.11,3.11A3.11,3.11,0,0,0,492.72,86.3Z" transform="translate(0 -11.59)"/><rect class="cls-1" x="396.98" y="62.19" width="9.58" height="9.58" transform="translate(-4.62 82.86) rotate(-13.33)"/><polygon class="cls-1" points="461.2 152.62 452.71 144.14 444.4 152.45 435.75 143.8 427.5 152.06 426.59 151.15 435.75 141.98 444.4 150.63 452.71 142.32 461.2 150.8 469.2 142.81 477.91 151.52 477 152.43 469.2 144.63 461.2 152.62"/><path class="cls-1" d="M567.19,238.35l-20.69-8.79,18-13.53Zm-18.14-9.1,16.59,7-2.19-17.89Z" transform="translate(0 -11.59)"/><path class="cls-1" d="M539.15,155.64a7.53,7.53,0,1,1,7.53-7.53A7.53,7.53,0,0,1,539.15,155.64Zm0-13.76a6.24,6.24,0,1,0,6.24,6.24A6.24,6.24,0,0,0,539.15,141.88Z" transform="translate(0 -11.59)"/><path class="cls-1" d="M492.72,222.15a3.75,3.75,0,1,1,3.75-3.75A3.75,3.75,0,0,1,492.72,222.15Zm0-6.86a3.11,3.11,0,1,0,3.11,3.11A3.11,3.11,0,0,0,492.72,215.3Z" transform="translate(0 -11.59)"/><rect class="cls-1" x="396.98" y="191.19" width="9.58" height="9.58" transform="translate(-34.37 86.34) rotate(-13.33)"/><polygon class="cls-1" points="461.2 281.62 452.71 273.14 444.4 281.45 435.75 272.8 427.5 281.06 426.59 280.15 435.75 270.98 444.4 279.63 452.71 271.32 461.2 279.8 469.2 271.81 477.91 280.52 477 281.43 469.2 273.63 461.2 281.62"/><path class="cls-1" d="M567.19,367.35l-20.69-8.79,18-13.53Zm-18.14-9.1,16.59,7-2.19-17.89Z" transform="translate(0 -11.59)"/><path class="cls-1" d="M539.15,284.64a7.53,7.53,0,1,1,7.53-7.53A7.53,7.53,0,0,1,539.15,284.64Zm0-13.76a6.24,6.24,0,1,0,6.24,6.24A6.24,6.24,0,0,0,539.15,270.88Z" transform="translate(0 -11.59)"/><path class="cls-1" d="M492.72,351.15a3.75,3.75,0,1,1,3.75-3.75A3.75,3.75,0,0,1,492.72,351.15Zm0-6.86a3.11,3.11,0,1,0,3.11,3.11A3.11,3.11,0,0,0,492.72,344.3Z" transform="translate(0 -11.59)"/><rect class="cls-1" x="396.98" y="320.19" width="9.58" height="9.58" transform="translate(-64.11 89.81) rotate(-13.33)"/><polygon class="cls-1" points="461.2 410.62 452.71 402.14 444.4 410.45 435.75 401.8 427.5 410.06 426.59 409.15 435.75 399.98 444.4 408.63 452.71 400.32 461.2 408.8 469.2 400.81 477.91 409.52 477 410.43 469.2 402.63 461.2 410.62"/><path class="cls-1" d="M567.19,496.35l-20.69-8.79,18-13.53Zm-18.14-9.1,16.59,7-2.19-17.89Z" transform="translate(0 -11.59)"/><path class="cls-1" d="M539.15,413.64a7.53,7.53,0,1,1,7.53-7.53A7.53,7.53,0,0,1,539.15,413.64Zm0-13.76a6.24,6.24,0,1,0,6.24,6.24A6.24,6.24,0,0,0,539.15,399.88Z" transform="translate(0 -11.59)"/><path class="cls-1" d="M492.72,480.15a3.75,3.75,0,1,1,3.75-3.75A3.75,3.75,0,0,1,492.72,480.15Zm0-6.86a3.11,3.11,0,1,0,3.11,3.11A3.11,3.11,0,0,0,492.72,473.3Z" transform="translate(0 -11.59)"/><rect class="cls-1" x="396.98" y="449.19" width="9.58" height="9.58" transform="translate(-93.86 93.29) rotate(-13.33)"/><polygon class="cls-1" points="461.2 539.62 452.71 531.14 444.4 539.45 435.75 530.8 427.5 539.06 426.59 538.15 435.75 528.98 444.4 537.63 452.71 529.32 461.2 537.8 469.2 529.81 477.91 538.52 477 539.43 469.2 531.63 461.2 539.62"/><path class="cls-1" d="M567.19,625.35l-20.69-8.79,18-13.53Zm-18.14-9.1,16.59,7-2.19-17.89Z" transform="translate(0 -11.59)"/><path class="cls-1" d="M539.15,542.64a7.53,7.53,0,1,1,7.53-7.53A7.53,7.53,0,0,1,539.15,542.64Zm0-13.76a6.24,6.24,0,1,0,6.24,6.24A6.24,6.24,0,0,0,539.15,528.88Z" transform="translate(0 -11.59)"/><path class="cls-1" d="M492.72,609.15a3.75,3.75,0,1,1,3.75-3.75A3.75,3.75,0,0,1,492.72,609.15Zm0-6.86a3.11,3.11,0,1,0,3.11,3.11A3.11,3.11,0,0,0,492.72,602.3Z" transform="translate(0 -11.59)"/><rect class="cls-1" x="396.98" y="578.19" width="9.58" height="9.58" transform="translate(-123.61 96.77) rotate(-13.33)"/><polygon class="cls-1" points="461.2 668.62 452.71 660.14 444.4 668.45 435.75 659.8 427.5 668.06 426.59 667.15 435.75 657.98 444.4 666.63 452.71 658.32 461.2 666.8 469.2 658.81 477.91 667.52 477 668.43 469.2 660.63 461.2 668.62"/><path class="cls-1" d="M567.19,754.35l-20.69-8.79,18-13.53Zm-18.14-9.1,16.59,7-2.19-17.89Z" transform="translate(0 -11.59)"/><path class="cls-1" d="M539.15,671.64a7.53,7.53,0,1,1,7.53-7.53A7.53,7.53,0,0,1,539.15,671.64Zm0-13.76a6.24,6.24,0,1,0,6.24,6.24A6.24,6.24,0,0,0,539.15,657.88Z" transform="translate(0 -11.59)"/><path class="cls-1" d="M492.72,738.15a3.75,3.75,0,1,1,3.75-3.75A3.75,3.75,0,0,1,492.72,738.15Zm0-6.86a3.11,3.11,0,1,0,3.11,3.11A3.11,3.11,0,0,0,492.72,731.3Z" transform="translate(0 -11.59)"/><rect class="cls-1" x="396.98" y="707.19" width="9.58" height="9.58" transform="translate(-153.36 100.25) rotate(-13.33)"/><polygon class="cls-1" points="461.2 797.62 452.71 789.14 444.4 797.45 435.75 788.8 427.5 797.06 426.59 796.15 435.75 786.98 444.4 795.63 452.71 787.32 461.2 795.8 469.2 787.81 477.91 796.52 477 797.43 469.2 789.63 461.2 797.62"/><path class="cls-1" d="M567.19,883.35l-20.69-8.79,18-13.53Zm-18.14-9.1,16.59,7-2.19-17.89Z" transform="translate(0 -11.59)"/><path class="cls-1" d="M539.15,800.64a7.53,7.53,0,1,1,7.53-7.53A7.53,7.53,0,0,1,539.15,800.64Zm0-13.76a6.24,6.24,0,1,0,6.24,6.24A6.24,6.24,0,0,0,539.15,786.88Z" transform="translate(0 -11.59)"/><path class="cls-1" d="M492.72,867.15a3.75,3.75,0,1,1,3.75-3.75A3.75,3.75,0,0,1,492.72,867.15Zm0-6.86a3.11,3.11,0,1,0,3.11,3.11A3.11,3.11,0,0,0,492.72,860.3Z" transform="translate(0 -11.59)"/><rect class="cls-1" x="396.98" y="836.19" width="9.58" height="9.58" transform="translate(-183.1 103.72) rotate(-13.33)"/><polygon class="cls-1" points="659.2 23.62 650.72 15.14 642.4 23.45 633.75 14.8 625.5 23.06 624.59 22.15 633.75 12.98 642.4 21.63 650.72 13.32 659.2 21.8 667.2 13.81 675.91 22.52 675 23.43 667.2 15.63 659.2 23.62"/><path class="cls-1" d="M765.19,109.35l-20.69-8.79,18-13.53Zm-18.14-9.1,16.59,7L761.45,89.4Z" transform="translate(0 -11.59)"/><path class="cls-1" d="M737.15,26.64a7.53,7.53,0,1,1,7.53-7.53A7.53,7.53,0,0,1,737.15,26.64Zm0-13.76a6.24,6.24,0,1,0,6.24,6.24A6.24,6.24,0,0,0,737.15,12.88Z" transform="translate(0 -11.59)"/><path class="cls-1" d="M690.72,93.15a3.75,3.75,0,1,1,3.75-3.75A3.75,3.75,0,0,1,690.72,93.15Zm0-6.86a3.11,3.11,0,1,0,3.11,3.11A3.11,3.11,0,0,0,690.72,86.3Z" transform="translate(0 -11.59)"/><rect class="cls-1" x="594.98" y="62.19" width="9.58" height="9.58" transform="translate(0.72 128.52) rotate(-13.33)"/><polygon class="cls-1" points="659.2 152.62 650.72 144.14 642.4 152.45 633.75 143.8 625.5 152.06 624.59 151.15 633.75 141.98 642.4 150.63 650.72 142.32 659.2 150.8 667.2 142.81 675.91 151.52 675 152.43 667.2 144.63 659.2 152.62"/><path class="cls-1" d="M765.19,238.35l-20.69-8.79,18-13.53Zm-18.14-9.1,16.59,7-2.19-17.89Z" transform="translate(0 -11.59)"/><path class="cls-1" d="M737.15,155.64a7.53,7.53,0,1,1,7.53-7.53A7.53,7.53,0,0,1,737.15,155.64Zm0-13.76a6.24,6.24,0,1,0,6.24,6.24A6.24,6.24,0,0,0,737.15,141.88Z" transform="translate(0 -11.59)"/><path class="cls-1" d="M690.72,222.15a3.75,3.75,0,1,1,3.75-3.75A3.75,3.75,0,0,1,690.72,222.15Zm0-6.86a3.11,3.11,0,1,0,3.11,3.11A3.11,3.11,0,0,0,690.72,215.3Z" transform="translate(0 -11.59)"/><rect class="cls-1" x="594.98" y="191.19" width="9.58" height="9.58" transform="translate(-29.03 132) rotate(-13.33)"/><polygon class="cls-1" points="659.2 281.62 650.72 273.14 642.4 281.45 633.75 272.8 625.5 281.06 624.59 280.15 633.75 270.98 642.4 279.63 650.72 271.32 659.2 279.8 667.2 271.81 675.91 280.52 675 281.43 667.2 273.63 659.2 281.62"/><path class="cls-1" d="M765.19,367.35l-20.69-8.79,18-13.53Zm-18.14-9.1,16.59,7-2.19-17.89Z" transform="translate(0 -11.59)"/><path class="cls-1" d="M737.15,284.64a7.53,7.53,0,1,1,7.53-7.53A7.53,7.53,0,0,1,737.15,284.64Zm0-13.76a6.24,6.24,0,1,0,6.24,6.24A6.24,6.24,0,0,0,737.15,270.88Z" transform="translate(0 -11.59)"/><path class="cls-1" d="M690.72,351.15a3.75,3.75,0,1,1,3.75-3.75A3.75,3.75,0,0,1,690.72,351.15Zm0-6.86a3.11,3.11,0,1,0,3.11,3.11A3.11,3.11,0,0,0,690.72,344.3Z" transform="translate(0 -11.59)"/><rect class="cls-1" x="594.98" y="320.19" width="9.58" height="9.58" transform="translate(-58.78 135.47) rotate(-13.33)"/><polygon class="cls-1" points="659.2 410.62 650.72 402.14 642.4 410.45 633.75 401.8 625.5 410.06 624.59 409.15 633.75 399.98 642.4 408.63 650.72 400.32 659.2 408.8 667.2 400.81 675.91 409.52 675 410.43 667.2 402.63 659.2 410.62"/><path class="cls-1" d="M765.19,496.35l-20.69-8.79,18-13.53Zm-18.14-9.1,16.59,7-2.19-17.89Z" transform="translate(0 -11.59)"/><path class="cls-1" d="M737.15,413.64a7.53,7.53,0,1,1,7.53-7.53A7.53,7.53,0,0,1,737.15,413.64Zm0-13.76a6.24,6.24,0,1,0,6.24,6.24A6.24,6.24,0,0,0,737.15,399.88Z" transform="translate(0 -11.59)"/><path class="cls-1" d="M690.72,480.15a3.75,3.75,0,1,1,3.75-3.75A3.75,3.75,0,0,1,690.72,480.15Zm0-6.86a3.11,3.11,0,1,0,3.11,3.11A3.11,3.11,0,0,0,690.72,473.3Z" transform="translate(0 -11.59)"/><rect class="cls-1" x="594.98" y="449.19" width="9.58" height="9.58" transform="translate(-88.52 138.95) rotate(-13.33)"/><polygon class="cls-1" points="659.2 539.62 650.72 531.14 642.4 539.45 633.75 530.8 625.5 539.06 624.59 538.15 633.75 528.98 642.4 537.63 650.72 529.32 659.2 537.8 667.2 529.81 675.91 538.52 675 539.43 667.2 531.63 659.2 539.62"/><path class="cls-1" d="M765.19,625.35l-20.69-8.79,18-13.53Zm-18.14-9.1,16.59,7-2.19-17.89Z" transform="translate(0 -11.59)"/><path class="cls-1" d="M737.15,542.64a7.53,7.53,0,1,1,7.53-7.53A7.53,7.53,0,0,1,737.15,542.64Zm0-13.76a6.24,6.24,0,1,0,6.24,6.24A6.24,6.24,0,0,0,737.15,528.88Z" transform="translate(0 -11.59)"/><path class="cls-1" d="M690.72,609.15a3.75,3.75,0,1,1,3.75-3.75A3.75,3.75,0,0,1,690.72,609.15Zm0-6.86a3.11,3.11,0,1,0,3.11,3.11A3.11,3.11,0,0,0,690.72,602.3Z" transform="translate(0 -11.59)"/><rect class="cls-1" x="594.98" y="578.19" width="9.58" height="9.58" transform="translate(-118.27 142.43) rotate(-13.33)"/><polygon class="cls-1" points="659.2 668.62 650.72 660.14 642.4 668.45 633.75 659.8 625.5 668.06 624.59 667.15 633.75 657.98 642.4 666.63 650.72 658.32 659.2 666.8 667.2 658.81 675.91 667.52 675 668.43 667.2 660.63 659.2 668.62"/><path class="cls-1" d="M765.19,754.35l-20.69-8.79,18-13.53Zm-18.14-9.1,16.59,7-2.19-17.89Z" transform="translate(0 -11.59)"/><path class="cls-1" d="M737.15,671.64a7.53,7.53,0,1,1,7.53-7.53A7.53,7.53,0,0,1,737.15,671.64Zm0-13.76a6.24,6.24,0,1,0,6.24,6.24A6.24,6.24,0,0,0,737.15,657.88Z" transform="translate(0 -11.59)"/><path class="cls-1" d="M690.72,738.15a3.75,3.75,0,1,1,3.75-3.75A3.75,3.75,0,0,1,690.72,738.15Zm0-6.86a3.11,3.11,0,1,0,3.11,3.11A3.11,3.11,0,0,0,690.72,731.3Z" transform="translate(0 -11.59)"/><rect class="cls-1" x="594.98" y="707.19" width="9.58" height="9.58" transform="translate(-148.02 145.9) rotate(-13.33)"/><polygon class="cls-1" points="659.2 797.62 650.72 789.14 642.4 797.45 633.75 788.8 625.5 797.06 624.59 796.15 633.75 786.98 642.4 795.63 650.72 787.32 659.2 795.8 667.2 787.81 675.91 796.52 675 797.43 667.2 789.63 659.2 797.62"/><path class="cls-1" d="M765.19,883.35l-20.69-8.79,18-13.53Zm-18.14-9.1,16.59,7-2.19-17.89Z" transform="translate(0 -11.59)"/><path class="cls-1" d="M737.15,800.64a7.53,7.53,0,1,1,7.53-7.53A7.53,7.53,0,0,1,737.15,800.64Zm0-13.76a6.24,6.24,0,1,0,6.24,6.24A6.24,6.24,0,0,0,737.15,786.88Z" transform="translate(0 -11.59)"/><path class="cls-1" d="M690.72,867.15a3.75,3.75,0,1,1,3.75-3.75A3.75,3.75,0,0,1,690.72,867.15Zm0-6.86a3.11,3.11,0,1,0,3.11,3.11A3.11,3.11,0,0,0,690.72,860.3Z" transform="translate(0 -11.59)"/><rect class="cls-1" x="594.98" y="836.19" width="9.58" height="9.58" transform="translate(-177.77 149.38) rotate(-13.33)"/><polygon class="cls-1" points="857.2 23.62 848.72 15.14 840.4 23.45 831.75 14.8 823.5 23.06 822.59 22.15 831.75 12.98 840.4 21.63 848.72 13.32 857.2 21.8 865.2 13.81 873.91 22.52 873 23.43 865.2 15.63 857.2 23.62"/><path class="cls-1" d="M963.19,109.35l-20.69-8.79,18-13.53Zm-18.14-9.1,16.59,7L959.45,89.4Z" transform="translate(0 -11.59)"/><path class="cls-1" d="M935.15,26.64a7.53,7.53,0,1,1,7.53-7.53A7.53,7.53,0,0,1,935.15,26.64Zm0-13.76a6.24,6.24,0,1,0,6.24,6.24A6.24,6.24,0,0,0,935.15,12.88Z" transform="translate(0 -11.59)"/><path class="cls-1" d="M888.72,93.15a3.75,3.75,0,1,1,3.75-3.75A3.75,3.75,0,0,1,888.72,93.15Zm0-6.86a3.11,3.11,0,1,0,3.11,3.11A3.11,3.11,0,0,0,888.72,86.3Z" transform="translate(0 -11.59)"/><rect class="cls-1" x="792.98" y="62.19" width="9.58" height="9.58" transform="translate(6.06 174.18) rotate(-13.33)"/><polygon class="cls-1" points="857.2 152.62 848.72 144.14 840.4 152.45 831.75 143.8 823.5 152.06 822.59 151.15 831.75 141.98 840.4 150.63 848.72 142.32 857.2 150.8 865.2 142.81 873.91 151.52 873 152.43 865.2 144.63 857.2 152.62"/><path class="cls-1" d="M963.19,238.35l-20.69-8.79,18-13.53Zm-18.14-9.1,16.59,7-2.19-17.89Z" transform="translate(0 -11.59)"/><path class="cls-1" d="M935.15,155.64a7.53,7.53,0,1,1,7.53-7.53A7.53,7.53,0,0,1,935.15,155.64Zm0-13.76a6.24,6.24,0,1,0,6.24,6.24A6.24,6.24,0,0,0,935.15,141.88Z" transform="translate(0 -11.59)"/><path class="cls-1" d="M888.72,222.15a3.75,3.75,0,1,1,3.75-3.75A3.75,3.75,0,0,1,888.72,222.15Zm0-6.86a3.11,3.11,0,1,0,3.11,3.11A3.11,3.11,0,0,0,888.72,215.3Z" transform="translate(0 -11.59)"/><rect class="cls-1" x="792.98" y="191.19" width="9.58" height="9.58" transform="translate(-23.69 177.66) rotate(-13.33)"/><polygon class="cls-1" points="857.2 281.62 848.72 273.14 840.4 281.45 831.75 272.8 823.5 281.06 822.59 280.15 831.75 270.98 840.4 279.63 848.72 271.32 857.2 279.8 865.2 271.81 873.91 280.52 873 281.43 865.2 273.63 857.2 281.62"/><path class="cls-1" d="M963.19,367.35l-20.69-8.79,18-13.53Zm-18.14-9.1,16.59,7-2.19-17.89Z" transform="translate(0 -11.59)"/><path class="cls-1" d="M935.15,284.64a7.53,7.53,0,1,1,7.53-7.53A7.53,7.53,0,0,1,935.15,284.64Zm0-13.76a6.24,6.24,0,1,0,6.24,6.24A6.24,6.24,0,0,0,935.15,270.88Z" transform="translate(0 -11.59)"/><path class="cls-1" d="M888.72,351.15a3.75,3.75,0,1,1,3.75-3.75A3.75,3.75,0,0,1,888.72,351.15Zm0-6.86a3.11,3.11,0,1,0,3.11,3.11A3.11,3.11,0,0,0,888.72,344.3Z" transform="translate(0 -11.59)"/><rect class="cls-1" x="792.98" y="320.19" width="9.58" height="9.58" transform="translate(-53.44 181.13) rotate(-13.33)"/><polygon class="cls-1" points="857.2 410.62 848.72 402.14 840.4 410.45 831.75 401.8 823.5 410.06 822.59 409.15 831.75 399.98 840.4 408.63 848.72 400.32 857.2 408.8 865.2 400.81 873.91 409.52 873 410.43 865.2 402.63 857.2 410.62"/><path class="cls-1" d="M963.19,496.35l-20.69-8.79,18-13.53Zm-18.14-9.1,16.59,7-2.19-17.89Z" transform="translate(0 -11.59)"/><path class="cls-1" d="M935.15,413.64a7.53,7.53,0,1,1,7.53-7.53A7.53,7.53,0,0,1,935.15,413.64Zm0-13.76a6.24,6.24,0,1,0,6.24,6.24A6.24,6.24,0,0,0,935.15,399.88Z" transform="translate(0 -11.59)"/><path class="cls-1" d="M888.72,480.15a3.75,3.75,0,1,1,3.75-3.75A3.75,3.75,0,0,1,888.72,480.15Zm0-6.86a3.11,3.11,0,1,0,3.11,3.11A3.11,3.11,0,0,0,888.72,473.3Z" transform="translate(0 -11.59)"/><rect class="cls-1" x="792.98" y="449.19" width="9.58" height="9.58" transform="translate(-83.19 184.61) rotate(-13.33)"/><polygon class="cls-1" points="857.2 539.62 848.72 531.14 840.4 539.45 831.75 530.8 823.5 539.06 822.59 538.15 831.75 528.98 840.4 537.63 848.72 529.32 857.2 537.8 865.2 529.81 873.91 538.52 873 539.43 865.2 531.63 857.2 539.62"/><path class="cls-1" d="M963.19,625.35l-20.69-8.79,18-13.53Zm-18.14-9.1,16.59,7-2.19-17.89Z" transform="translate(0 -11.59)"/><path class="cls-1" d="M935.15,542.64a7.53,7.53,0,1,1,7.53-7.53A7.53,7.53,0,0,1,935.15,542.64Zm0-13.76a6.24,6.24,0,1,0,6.24,6.24A6.24,6.24,0,0,0,935.15,528.88Z" transform="translate(0 -11.59)"/><path class="cls-1" d="M888.72,609.15a3.75,3.75,0,1,1,3.75-3.75A3.75,3.75,0,0,1,888.72,609.15Zm0-6.86a3.11,3.11,0,1,0,3.11,3.11A3.11,3.11,0,0,0,888.72,602.3Z" transform="translate(0 -11.59)"/><rect class="cls-1" x="792.98" y="578.19" width="9.58" height="9.58" transform="translate(-112.94 188.09) rotate(-13.33)"/><polygon class="cls-1" points="857.2 668.62 848.72 660.14 840.4 668.45 831.75 659.8 823.5 668.06 822.59 667.15 831.75 657.98 840.4 666.63 848.72 658.32 857.2 666.8 865.2 658.81 873.91 667.52 873 668.43 865.2 660.63 857.2 668.62"/><path class="cls-1" d="M963.19,754.35l-20.69-8.79,18-13.53Zm-18.14-9.1,16.59,7-2.19-17.89Z" transform="translate(0 -11.59)"/><path class="cls-1" d="M935.15,671.64a7.53,7.53,0,1,1,7.53-7.53A7.53,7.53,0,0,1,935.15,671.64Zm0-13.76a6.24,6.24,0,1,0,6.24,6.24A6.24,6.24,0,0,0,935.15,657.88Z" transform="translate(0 -11.59)"/><path class="cls-1" d="M888.72,738.15a3.75,3.75,0,1,1,3.75-3.75A3.75,3.75,0,0,1,888.72,738.15Zm0-6.86a3.11,3.11,0,1,0,3.11,3.11A3.11,3.11,0,0,0,888.72,731.3Z" transform="translate(0 -11.59)"/><rect class="cls-1" x="792.98" y="707.19" width="9.58" height="9.58" transform="translate(-142.68 191.56) rotate(-13.33)"/><polygon class="cls-1" points="857.2 797.62 848.72 789.14 840.4 797.45 831.75 788.8 823.5 797.06 822.59 796.15 831.75 786.98 840.4 795.63 848.72 787.32 857.2 795.8 865.2 787.81 873.91 796.52 873 797.43 865.2 789.63 857.2 797.62"/><path class="cls-1" d="M963.19,883.35l-20.69-8.79,18-13.53Zm-18.14-9.1,16.59,7-2.19-17.89Z" transform="translate(0 -11.59)"/><path class="cls-1" d="M935.15,800.64a7.53,7.53,0,1,1,7.53-7.53A7.53,7.53,0,0,1,935.15,800.64Zm0-13.76a6.24,6.24,0,1,0,6.24,6.24A6.24,6.24,0,0,0,935.15,786.88Z" transform="translate(0 -11.59)"/><path class="cls-1" d="M888.72,867.15a3.75,3.75,0,1,1,3.75-3.75A3.75,3.75,0,0,1,888.72,867.15Zm0-6.86a3.11,3.11,0,1,0,3.11,3.11A3.11,3.11,0,0,0,888.72,860.3Z" transform="translate(0 -11.59)"/><rect class="cls-1" x="792.98" y="836.19" width="9.58" height="9.58" transform="translate(-172.43 195.04) rotate(-13.33)"/><polygon class="cls-1" points="1055.2 23.62 1046.71 15.14 1038.4 23.45 1029.75 14.8 1021.5 23.06 1020.59 22.15 1029.75 12.98 1038.4 21.63 1046.71 13.32 1055.2 21.8 1063.2 13.81 1071.91 22.52 1071 23.43 1063.2 15.63 1055.2 23.62"/><path class="cls-1" d="M1161.19,109.35l-20.69-8.79,18-13.53Zm-18.14-9.1,16.59,7-2.19-17.89Z" transform="translate(0 -11.59)"/><path class="cls-1" d="M1133.15,26.64a7.53,7.53,0,1,1,7.53-7.53A7.53,7.53,0,0,1,1133.15,26.64Zm0-13.76a6.24,6.24,0,1,0,6.24,6.24A6.24,6.24,0,0,0,1133.15,12.88Z" transform="translate(0 -11.59)"/><path class="cls-1" d="M1086.72,93.15a3.75,3.75,0,1,1,3.75-3.75A3.75,3.75,0,0,1,1086.72,93.15Zm0-6.86a3.11,3.11,0,1,0,3.11,3.11A3.11,3.11,0,0,0,1086.72,86.3Z" transform="translate(0 -11.59)"/><rect class="cls-1" x="990.98" y="62.19" width="9.58" height="9.58" transform="translate(11.39 219.84) rotate(-13.33)"/><polygon class="cls-1" points="1055.2 152.62 1046.71 144.14 1038.4 152.45 1029.75 143.8 1021.5 152.06 1020.59 151.15 1029.75 141.98 1038.4 150.63 1046.71 142.32 1055.2 150.8 1063.2 142.81 1071.91 151.52 1071 152.43 1063.2 144.63 1055.2 152.62"/><path class="cls-1" d="M1161.19,238.35l-20.69-8.79,18-13.53Zm-18.14-9.1,16.59,7-2.19-17.89Z" transform="translate(0 -11.59)"/><path class="cls-1" d="M1133.15,155.64a7.53,7.53,0,1,1,7.53-7.53A7.53,7.53,0,0,1,1133.15,155.64Zm0-13.76a6.24,6.24,0,1,0,6.24,6.24A6.24,6.24,0,0,0,1133.15,141.88Z" transform="translate(0 -11.59)"/><path class="cls-1" d="M1086.72,222.15a3.75,3.75,0,1,1,3.75-3.75A3.75,3.75,0,0,1,1086.72,222.15Zm0-6.86a3.11,3.11,0,1,0,3.11,3.11A3.11,3.11,0,0,0,1086.72,215.3Z" transform="translate(0 -11.59)"/><rect class="cls-1" x="990.98" y="191.19" width="9.58" height="9.58" transform="translate(-18.36 223.32) rotate(-13.33)"/><polygon class="cls-1" points="1055.2 281.62 1046.71 273.14 1038.4 281.45 1029.75 272.8 1021.5 281.06 1020.59 280.15 1029.75 270.98 1038.4 279.63 1046.71 271.32 1055.2 279.8 1063.2 271.81 1071.91 280.52 1071 281.43 1063.2 273.63 1055.2 281.62"/><path class="cls-1" d="M1161.19,367.35l-20.69-8.79,18-13.53Zm-18.14-9.1,16.59,7-2.19-17.89Z" transform="translate(0 -11.59)"/><path class="cls-1" d="M1133.15,284.64a7.53,7.53,0,1,1,7.53-7.53A7.53,7.53,0,0,1,1133.15,284.64Zm0-13.76a6.24,6.24,0,1,0,6.24,6.24A6.24,6.24,0,0,0,1133.15,270.88Z" transform="translate(0 -11.59)"/><path class="cls-1" d="M1086.72,351.15a3.75,3.75,0,1,1,3.75-3.75A3.75,3.75,0,0,1,1086.72,351.15Zm0-6.86a3.11,3.11,0,1,0,3.11,3.11A3.11,3.11,0,0,0,1086.72,344.3Z" transform="translate(0 -11.59)"/><rect class="cls-1" x="990.98" y="320.19" width="9.58" height="9.58" transform="translate(-48.1 226.79) rotate(-13.33)"/><polygon class="cls-1" points="1055.2 410.62 1046.71 402.14 1038.4 410.45 1029.75 401.8 1021.5 410.06 1020.59 409.15 1029.75 399.98 1038.4 408.63 1046.71 400.32 1055.2 408.8 1063.2 400.81 1071.91 409.52 1071 410.43 1063.2 402.63 1055.2 410.62"/><path class="cls-1" d="M1161.19,496.35l-20.69-8.79,18-13.53Zm-18.14-9.1,16.59,7-2.19-17.89Z" transform="translate(0 -11.59)"/><path class="cls-1" d="M1133.15,413.64a7.53,7.53,0,1,1,7.53-7.53A7.53,7.53,0,0,1,1133.15,413.64Zm0-13.76a6.24,6.24,0,1,0,6.24,6.24A6.24,6.24,0,0,0,1133.15,399.88Z" transform="translate(0 -11.59)"/><path class="cls-1" d="M1086.72,480.15a3.75,3.75,0,1,1,3.75-3.75A3.75,3.75,0,0,1,1086.72,480.15Zm0-6.86a3.11,3.11,0,1,0,3.11,3.11A3.11,3.11,0,0,0,1086.72,473.3Z" transform="translate(0 -11.59)"/><rect class="cls-1" x="990.98" y="449.19" width="9.58" height="9.58" transform="translate(-77.85 230.27) rotate(-13.33)"/><polygon class="cls-1" points="1055.2 539.62 1046.71 531.14 1038.4 539.45 1029.75 530.8 1021.5 539.06 1020.59 538.15 1029.75 528.98 1038.4 537.63 1046.71 529.32 1055.2 537.8 1063.2 529.81 1071.91 538.52 1071 539.43 1063.2 531.63 1055.2 539.62"/><path class="cls-1" d="M1161.19,625.35l-20.69-8.79,18-13.53Zm-18.14-9.1,16.59,7-2.19-17.89Z" transform="translate(0 -11.59)"/><path class="cls-1" d="M1133.15,542.64a7.53,7.53,0,1,1,7.53-7.53A7.53,7.53,0,0,1,1133.15,542.64Zm0-13.76a6.24,6.24,0,1,0,6.24,6.24A6.24,6.24,0,0,0,1133.15,528.88Z" transform="translate(0 -11.59)"/><path class="cls-1" d="M1086.72,609.15a3.75,3.75,0,1,1,3.75-3.75A3.75,3.75,0,0,1,1086.72,609.15Zm0-6.86a3.11,3.11,0,1,0,3.11,3.11A3.11,3.11,0,0,0,1086.72,602.3Z" transform="translate(0 -11.59)"/><rect class="cls-1" x="990.98" y="578.19" width="9.58" height="9.58" transform="translate(-107.6 233.75) rotate(-13.33)"/><polygon class="cls-1" points="1055.2 668.62 1046.71 660.14 1038.4 668.45 1029.75 659.8 1021.5 668.06 1020.59 667.15 1029.75 657.98 1038.4 666.63 1046.71 658.32 1055.2 666.8 1063.2 658.81 1071.91 667.52 1071 668.43 1063.2 660.63 1055.2 668.62"/><path class="cls-1" d="M1161.19,754.35l-20.69-8.79,18-13.53Zm-18.14-9.1,16.59,7-2.19-17.89Z" transform="translate(0 -11.59)"/><path class="cls-1" d="M1133.15,671.64a7.53,7.53,0,1,1,7.53-7.53A7.53,7.53,0,0,1,1133.15,671.64Zm0-13.76a6.24,6.24,0,1,0,6.24,6.24A6.24,6.24,0,0,0,1133.15,657.88Z" transform="translate(0 -11.59)"/><path class="cls-1" d="M1086.72,738.15a3.75,3.75,0,1,1,3.75-3.75A3.75,3.75,0,0,1,1086.72,738.15Zm0-6.86a3.11,3.11,0,1,0,3.11,3.11A3.11,3.11,0,0,0,1086.72,731.3Z" transform="translate(0 -11.59)"/><rect class="cls-1" x="990.98" y="707.19" width="9.58" height="9.58" transform="translate(-137.35 237.22) rotate(-13.33)"/><polygon class="cls-1" points="1055.2 797.62 1046.71 789.14 1038.4 797.45 1029.75 788.8 1021.5 797.06 1020.59 796.15 1029.75 786.98 1038.4 795.63 1046.71 787.32 1055.2 795.8 1063.2 787.81 1071.91 796.52 1071 797.43 1063.2 789.63 1055.2 797.62"/><path class="cls-1" d="M1161.19,883.35l-20.69-8.79,18-13.53Zm-18.14-9.1,16.59,7-2.19-17.89Z" transform="translate(0 -11.59)"/><path class="cls-1" d="M1133.15,800.64a7.53,7.53,0,1,1,7.53-7.53A7.53,7.53,0,0,1,1133.15,800.64Zm0-13.76a6.24,6.24,0,1,0,6.24,6.24A6.24,6.24,0,0,0,1133.15,786.88Z" transform="translate(0 -11.59)"/><path class="cls-1" d="M1086.72,867.15a3.75,3.75,0,1,1,3.75-3.75A3.75,3.75,0,0,1,1086.72,867.15Zm0-6.86a3.11,3.11,0,1,0,3.11,3.11A3.11,3.11,0,0,0,1086.72,860.3Z" transform="translate(0 -11.59)"/><rect class="cls-1" x="990.98" y="836.19" width="9.58" height="9.58" transform="translate(-167.09 240.7) rotate(-13.33)"/><polygon class="cls-1" points="1259.2 23.62 1250.71 15.14 1242.4 23.45 1233.75 14.8 1225.5 23.06 1224.59 22.15 1233.75 12.98 1242.4 21.63 1250.71 13.32 1259.2 21.8 1267.2 13.81 1275.91 22.52 1275 23.43 1267.2 15.63 1259.2 23.62"/><path class="cls-1" d="M1365.19,109.35l-20.69-8.79,18-13.53Zm-18.14-9.1,16.59,7-2.19-17.89Z" transform="translate(0 -11.59)"/><path class="cls-1" d="M1337.15,26.64a7.53,7.53,0,1,1,7.53-7.53A7.53,7.53,0,0,1,1337.15,26.64Zm0-13.76a6.24,6.24,0,1,0,6.24,6.24A6.24,6.24,0,0,0,1337.15,12.88Z" transform="translate(0 -11.59)"/><path class="cls-1" d="M1290.72,93.15a3.75,3.75,0,1,1,3.75-3.75A3.75,3.75,0,0,1,1290.72,93.15Zm0-6.86a3.11,3.11,0,1,0,3.11,3.11A3.11,3.11,0,0,0,1290.72,86.3Z" transform="translate(0 -11.59)"/><rect class="cls-1" x="1194.98" y="62.19" width="9.58" height="9.58" transform="translate(16.89 266.88) rotate(-13.33)"/><polygon class="cls-1" points="1259.2 152.62 1250.71 144.14 1242.4 152.45 1233.75 143.8 1225.5 152.06 1224.59 151.15 1233.75 141.98 1242.4 150.63 1250.71 142.32 1259.2 150.8 1267.2 142.81 1275.91 151.52 1275 152.43 1267.2 144.63 1259.2 152.62"/><path class="cls-1" d="M1365.19,238.35l-20.69-8.79,18-13.53Zm-18.14-9.1,16.59,7-2.19-17.89Z" transform="translate(0 -11.59)"/><path class="cls-1" d="M1337.15,155.64a7.53,7.53,0,1,1,7.53-7.53A7.53,7.53,0,0,1,1337.15,155.64Zm0-13.76a6.24,6.24,0,1,0,6.24,6.24A6.24,6.24,0,0,0,1337.15,141.88Z" transform="translate(0 -11.59)"/><path class="cls-1" d="M1290.72,222.15a3.75,3.75,0,1,1,3.75-3.75A3.75,3.75,0,0,1,1290.72,222.15Zm0-6.86a3.11,3.11,0,1,0,3.11,3.11A3.11,3.11,0,0,0,1290.72,215.3Z" transform="translate(0 -11.59)"/><rect class="cls-1" x="1194.98" y="191.19" width="9.58" height="9.58" transform="translate(-12.86 270.36) rotate(-13.33)"/><polygon class="cls-1" points="1259.2 281.62 1250.71 273.14 1242.4 281.45 1233.75 272.8 1225.5 281.06 1224.59 280.15 1233.75 270.98 1242.4 279.63 1250.71 271.32 1259.2 279.8 1267.2 271.81 1275.91 280.52 1275 281.43 1267.2 273.63 1259.2 281.62"/><path class="cls-1" d="M1365.19,367.35l-20.69-8.79,18-13.53Zm-18.14-9.1,16.59,7-2.19-17.89Z" transform="translate(0 -11.59)"/><path class="cls-1" d="M1337.15,284.64a7.53,7.53,0,1,1,7.53-7.53A7.53,7.53,0,0,1,1337.15,284.64Zm0-13.76a6.24,6.24,0,1,0,6.24,6.24A6.24,6.24,0,0,0,1337.15,270.88Z" transform="translate(0 -11.59)"/><path class="cls-1" d="M1290.72,351.15a3.75,3.75,0,1,1,3.75-3.75A3.75,3.75,0,0,1,1290.72,351.15Zm0-6.86a3.11,3.11,0,1,0,3.11,3.11A3.11,3.11,0,0,0,1290.72,344.3Z" transform="translate(0 -11.59)"/><rect class="cls-1" x="1194.98" y="320.19" width="9.58" height="9.58" transform="translate(-42.61 273.84) rotate(-13.33)"/><polygon class="cls-1" points="1259.2 410.62 1250.71 402.14 1242.4 410.45 1233.75 401.8 1225.5 410.06 1224.59 409.15 1233.75 399.98 1242.4 408.63 1250.71 400.32 1259.2 408.8 1267.2 400.81 1275.91 409.52 1275 410.43 1267.2 402.63 1259.2 410.62"/><path class="cls-1" d="M1365.19,496.35l-20.69-8.79,18-13.53Zm-18.14-9.1,16.59,7-2.19-17.89Z" transform="translate(0 -11.59)"/><path class="cls-1" d="M1337.15,413.64a7.53,7.53,0,1,1,7.53-7.53A7.53,7.53,0,0,1,1337.15,413.64Zm0-13.76a6.24,6.24,0,1,0,6.24,6.24A6.24,6.24,0,0,0,1337.15,399.88Z" transform="translate(0 -11.59)"/><path class="cls-1" d="M1290.72,480.15a3.75,3.75,0,1,1,3.75-3.75A3.75,3.75,0,0,1,1290.72,480.15Zm0-6.86a3.11,3.11,0,1,0,3.11,3.11A3.11,3.11,0,0,0,1290.72,473.3Z" transform="translate(0 -11.59)"/><rect class="cls-1" x="1194.98" y="449.19" width="9.58" height="9.58" transform="translate(-72.35 277.31) rotate(-13.33)"/><polygon class="cls-1" points="1259.2 539.62 1250.71 531.14 1242.4 539.45 1233.75 530.8 1225.5 539.06 1224.59 538.15 1233.75 528.98 1242.4 537.63 1250.71 529.32 1259.2 537.8 1267.2 529.81 1275.91 538.52 1275 539.43 1267.2 531.63 1259.2 539.62"/><path class="cls-1" d="M1365.19,625.35l-20.69-8.79,18-13.53Zm-18.14-9.1,16.59,7-2.19-17.89Z" transform="translate(0 -11.59)"/><path class="cls-1" d="M1337.15,542.64a7.53,7.53,0,1,1,7.53-7.53A7.53,7.53,0,0,1,1337.15,542.64Zm0-13.76a6.24,6.24,0,1,0,6.24,6.24A6.24,6.24,0,0,0,1337.15,528.88Z" transform="translate(0 -11.59)"/><path class="cls-1" d="M1290.72,609.15a3.75,3.75,0,1,1,3.75-3.75A3.75,3.75,0,0,1,1290.72,609.15Zm0-6.86a3.11,3.11,0,1,0,3.11,3.11A3.11,3.11,0,0,0,1290.72,602.3Z" transform="translate(0 -11.59)"/><rect class="cls-1" x="1194.98" y="578.19" width="9.58" height="9.58" transform="translate(-102.1 280.79) rotate(-13.33)"/><polygon class="cls-1" points="1259.2 668.62 1250.71 660.14 1242.4 668.45 1233.75 659.8 1225.5 668.06 1224.59 667.15 1233.75 657.98 1242.4 666.63 1250.71 658.32 1259.2 666.8 1267.2 658.81 1275.91 667.52 1275 668.43 1267.2 660.63 1259.2 668.62"/><path class="cls-1" d="M1365.19,754.35l-20.69-8.79,18-13.53Zm-18.14-9.1,16.59,7-2.19-17.89Z" transform="translate(0 -11.59)"/><path class="cls-1" d="M1337.15,671.64a7.53,7.53,0,1,1,7.53-7.53A7.53,7.53,0,0,1,1337.15,671.64Zm0-13.76a6.24,6.24,0,1,0,6.24,6.24A6.24,6.24,0,0,0,1337.15,657.88Z" transform="translate(0 -11.59)"/><path class="cls-1" d="M1290.72,738.15a3.75,3.75,0,1,1,3.75-3.75A3.75,3.75,0,0,1,1290.72,738.15Zm0-6.86a3.11,3.11,0,1,0,3.11,3.11A3.11,3.11,0,0,0,1290.72,731.3Z" transform="translate(0 -11.59)"/><rect class="cls-1" x="1194.98" y="707.19" width="9.58" height="9.58" transform="translate(-131.85 284.27) rotate(-13.33)"/><polygon class="cls-1" points="1259.2 797.62 1250.71 789.14 1242.4 797.45 1233.75 788.8 1225.5 797.06 1224.59 796.15 1233.75 786.98 1242.4 795.63 1250.71 787.32 1259.2 795.8 1267.2 787.81 1275.91 796.52 1275 797.43 1267.2 789.63 1259.2 797.62"/><path class="cls-1" d="M1365.19,883.35l-20.69-8.79,18-13.53Zm-18.14-9.1,16.59,7-2.19-17.89Z" transform="translate(0 -11.59)"/><path class="cls-1" d="M1337.15,800.64a7.53,7.53,0,1,1,7.53-7.53A7.53,7.53,0,0,1,1337.15,800.64Zm0-13.76a6.24,6.24,0,1,0,6.24,6.24A6.24,6.24,0,0,0,1337.15,786.88Z" transform="translate(0 -11.59)"/><path class="cls-1" d="M1290.72,867.15a3.75,3.75,0,1,1,3.75-3.75A3.75,3.75,0,0,1,1290.72,867.15Zm0-6.86a3.11,3.11,0,1,0,3.11,3.11A3.11,3.11,0,0,0,1290.72,860.3Z" transform="translate(0 -11.59)"/><rect class="cls-1" x="1194.98" y="836.19" width="9.58" height="9.58" transform="translate(-161.6 287.74) rotate(-13.33)"/></svg>