<svg id="Laag_1" data-name="Laag 1" xmlns="http://www.w3.org/2000/svg" width="50.05mm" height="22.93mm" viewBox="0 0 141.88 65"><defs><style>.cls-1{fill:#2bf8f7;}</style></defs><title>breakout_icon</title><path class="cls-1" d="M56.33,60.93a101,101,0,0,1,13-12c1.37-1.07,2.76-2.12,4.15-3.11a1.89,1.89,0,0,1,2.2,3.07c-1.34,1-2.69,2-4,3a97.14,97.14,0,0,0-12.5,11.58,1.89,1.89,0,0,1-2.83-2.51h0ZM71.68,38.38a1.89,1.89,0,0,0-2.62-.53c-2.51,1.67-5.05,3.52-7.56,5.48C53,50,46,57.28,42.87,62.73a1.89,1.89,0,0,0,.69,2.58,1.86,1.86,0,0,0,.38.17,1.89,1.89,0,0,0,2.2-.86c2.87-5,9.65-12,17.69-18.31,2.43-1.91,4.89-3.7,7.32-5.31a1.89,1.89,0,0,0,.53-2.62h0ZM54.25,40.69A1.89,1.89,0,0,0,56,40.39c2.47-1.9,5-3.71,7.56-5.37,1.42-.92,2.85-1.81,4.27-2.65a1.89,1.89,0,1,0-1.92-3.25c-1.46.86-2.94,1.78-4.41,2.73-2.64,1.72-5.27,3.58-7.81,5.55a1.89,1.89,0,0,0,.59,3.3h0Zm46.32-5.58h0a13.79,13.79,0,1,1-6.28-18.46,13.81,13.81,0,0,1,6.28,18.46h0Zm-3.39-1.67A10,10,0,0,0,92.61,20a10.18,10.18,0,0,0-1.45-.58,10,10,0,1,0,6,14h0ZM88.5,31.38" transform="translate(-0.05 -9.39)"/><polygon class="cls-1" points="26.87 10.44 20.29 3.85 13.83 10.31 7.12 3.59 0.71 10 0 9.29 7.12 2.18 13.83 8.89 20.29 2.44 26.87 9.03 33.08 2.82 39.85 9.58 39.14 10.29 33.08 4.23 26.87 10.44"/><path class="cls-1" d="M141.94,74.39l-16.07-6.82,13.94-10.5Zm-14.08-7.07,12.88,5.47L139,58.9Z" transform="translate(-0.05 -9.39)"/><path class="cls-1" d="M126,21.08a5.84,5.84,0,1,1,5.84-5.84A5.85,5.85,0,0,1,126,21.08Zm0-10.69a4.84,4.84,0,1,0,4.84,4.84A4.85,4.85,0,0,0,126,10.39Z" transform="translate(-0.05 -9.39)"/></svg>