<svg id="Laag_1" data-name="Laag 1" xmlns="http://www.w3.org/2000/svg" width="81.23mm" height="53.43mm" viewBox="0 0 230.25 151.45"><defs><style>.cls-1{fill:#5f75dd;}</style></defs><title>breakout_icon</title><path class="cls-1" d="M224.78,87.8c2.94-5.62-5.06-12-9.87-8,0.69-4-4.33-7.89-8.45-8.31A10.09,10.09,0,0,0,195.39,80c-4.32-2.25-9.85,1.68-10.36,6.74s2.18,8.54,7.29,9.07l31.55,3.22a5.7,5.7,0,0,0,6.37-5.25C230.58,90.38,227.27,87.81,224.78,87.8Z"/><path class="cls-1" d="M26.06,57.66C28,54,22.75,49.81,19.6,52.39c0.46-2.65-2.83-5.16-5.54-5.45a6.59,6.59,0,0,0-7.23,5.62C4,51.1.39,53.68,0,57s1.43,5.61,4.77,5.94L25.45,65a3.72,3.72,0,0,0,4.17-3.43A3.82,3.82,0,0,0,26.06,57.66Z"/><path class="cls-1" d="M220.91,140.87a6.59,6.59,0,0,0-6.12-6.83c-2.71-.21-6.38,1.68-6.42,4.37-2.64-3.11-8.52.05-7.3,4a3.78,3.78,0,0,0-4.21,3.24,3.74,3.74,0,0,0,3.48,4.14L221,151.43c3.34,0.27,5.5-1.66,5.77-5S223.95,139.93,220.91,140.87Z"/><path class="cls-1" d="M78.33,143.29c0.8-2.53-3-4.54-4.65-2.56,0-1.72-2.37-2.92-4.1-2.78a4.19,4.19,0,0,0-3.89,4.35c-1.93-.6-3.91,1.43-3.77,3.55A3.18,3.18,0,0,0,65.6,149l13.19-1A2.39,2.39,0,0,0,81,145.36,2.42,2.42,0,0,0,78.33,143.29Z"/><path class="cls-1" d="M37.64,5.3A5.87,5.87,0,0,0,31.45,0C29,0.15,26,2.24,26.32,4.61c-2.69-2.42-7.5,1.06-5.94,4.4a3.38,3.38,0,0,0-3.32,3.34,3.31,3.31,0,0,0,3.55,3.22l18.41-1c3-.16,4.63-2.12,4.47-5.08S40.2,4.11,37.64,5.3Z"/><path class="cls-1" d="M139.29,44a16.39,16.39,0,0,0-14.48,29.41,16.55,16.55,0,0,0,2.35.94A16.39,16.39,0,0,0,139.29,44Z"/><path class="cls-1" d="M94.17,96.67a120.06,120.06,0,0,1,15.45-14.32c1.63-1.28,3.28-2.52,4.93-3.7a2.25,2.25,0,0,1,2.62,3.65c-1.59,1.14-3.2,2.35-4.77,3.59A115.5,115.5,0,0,0,97.53,99.64a2.25,2.25,0,0,1-3.37-3h0Z"/><path class="cls-1" d="M112.41,69.85a2.25,2.25,0,0,0-3.12-.63c-3,2-6,4.18-9,6.52-10.13,8-18.41,16.58-22.15,23.05a2.25,2.25,0,0,0,.82,3.07,2.21,2.21,0,0,0,.45.2A2.25,2.25,0,0,0,82,101c3.42-5.91,11.48-14.25,21-21.77C106,77,108.9,74.89,111.78,73a2.25,2.25,0,0,0,.63-3.12h0Z"/><path class="cls-1" d="M91.69,72.6a2.25,2.25,0,0,0,2-.36c2.93-2.26,6-4.41,9-6.39,1.69-1.1,3.39-2.16,5.07-3.15a2.25,2.25,0,1,0-2.28-3.87c-1.74,1-3.5,2.12-5.24,3.25-3.14,2-6.26,4.26-9.29,6.6a2.25,2.25,0,0,0,.7,3.92h0Z"/></svg>