<svg id="Laag_1" data-name="Laag 1" xmlns="http://www.w3.org/2000/svg" width="47.23mm" height="30.07mm" viewBox="0 0 133.88 85.24"><defs><style>.cls-1{fill:#2bf8f7;}</style></defs><title>Naamloos-7</title><path class="cls-1" d="M56.28,79.79a101,101,0,0,1,13-12c1.37-1.07,2.76-2.12,4.15-3.11a1.89,1.89,0,0,1,2.2,3.07c-1.34,1-2.69,2-4,3a97.14,97.14,0,0,0-12.5,11.58,1.89,1.89,0,0,1-2.83-2.51h0ZM71.62,57.23A1.89,1.89,0,0,0,69,56.7c-2.51,1.67-5.05,3.52-7.56,5.48C52.92,68.89,46,76.13,42.81,81.58a1.89,1.89,0,0,0,.69,2.58,1.86,1.86,0,0,0,.38.17,1.89,1.89,0,0,0,2.2-.86c2.87-5,9.65-12,17.69-18.31,2.43-1.91,4.89-3.7,7.32-5.31a1.89,1.89,0,0,0,.53-2.62h0ZM54.19,59.55a1.89,1.89,0,0,0,1.72-.31c2.47-1.9,5-3.71,7.56-5.37,1.42-.92,2.85-1.81,4.27-2.65A1.89,1.89,0,1,0,65.82,48c-1.46.86-2.94,1.78-4.41,2.73-2.64,1.72-5.27,3.58-7.81,5.55a1.89,1.89,0,0,0,.59,3.3h0ZM100.51,54h0a13.79,13.79,0,1,1-6.28-18.46A13.81,13.81,0,0,1,100.51,54h0ZM97.12,52.3a10,10,0,0,0-4.56-13.4,10.18,10.18,0,0,0-1.45-.58,10,10,0,1,0,6,14h0Zm-8.67-2.06"/><polygon class="cls-1" points="26.87 38.69 20.29 32.1 13.83 38.55 7.12 31.84 0.71 38.25 0 37.54 7.12 30.42 13.83 37.14 20.29 30.68 26.87 37.27 33.08 31.06 39.85 37.83 39.14 38.53 33.08 32.48 26.87 38.69"/><path class="cls-1" d="M133.88,85.24l-16.07-6.82,13.94-10.5ZM119.8,78.17l12.88,5.47L131,69.75Z"/><path class="cls-1" d="M121.11,11.69a5.84,5.84,0,1,1,5.84-5.84A5.85,5.85,0,0,1,121.11,11.69Zm0-10.69a4.84,4.84,0,1,0,4.84,4.84A4.85,4.85,0,0,0,121.11,1Z"/></svg>