<svg id="Laag_1" data-name="Laag 1" xmlns="http://www.w3.org/2000/svg" width="48.27mm" height="31.24mm" viewBox="0 0 136.83 88.56"><defs><style>.cls-1{fill:#fc1895;}.cls-2{opacity:0.9;}</style></defs><title>Naamloos-7</title><path class="cls-1" d="M87.76,39.19l-3.52-3.32-4.15,4.06,3.25,3.32Zm-16.86-9-4.65-.05-0.08,6.57,4.65,0.05ZM56.83,39.65L52.77,35.5l-3.32,3.25,4.06,3.88Z"/><g class="cls-2"><path class="cls-1" d="M61.35,50.92a7.57,7.57,0,0,0,.78,3.57l-10,9.74a7.57,7.57,0,0,0-3.55-.86,7.11,7.11,0,1,0,7,7.2A7.57,7.57,0,0,0,54.87,67l10-9.46a8.12,8.12,0,0,0,7.11.08l9.47,9.69a4.92,4.92,0,0,0-.86,3,7.11,7.11,0,1,0,7.2-7,7.57,7.57,0,0,0-3.57.78l-9.46-10a4.92,4.92,0,0,0,.86-3,7.11,7.11,0,0,0-14.23-.16h0ZM52.1,70.25a3.28,3.28,0,1,1-3.25-3.32c1.92-.25,3.27,1.41,3.25,3.32h0ZM91,70.7a3.28,3.28,0,1,1-3.25-3.32C89.62,67.12,91,68.78,91,70.7h0ZM71.75,51a3.28,3.28,0,1,1-3.25-3.32c1.92-.25,3.27,1.41,3.25,3.32h0Z"/></g><polygon class="cls-1" points="130.69 72.11 129.99 71.4 134.89 66.49 129.8 61.4 135.21 55.99 129.91 50.69 135.42 45.18 130.22 39.99 130.93 39.28 136.83 45.18 131.32 50.69 136.62 55.99 131.21 61.4 136.31 66.49 130.69 72.11"/><path class="cls-1" d="M0.6,88.56L0,73.93l13,6.79ZM1.07,75.62L1.53,86.78l9.44-6Z"/><path class="cls-1" d="M29.23,9.77a4.88,4.88,0,1,1,4.88-4.88A4.89,4.89,0,0,1,29.23,9.77Zm0-8.77a3.88,3.88,0,1,0,3.88,3.88A3.89,3.89,0,0,0,29.23,1Z"/></svg>