<svg id="Laag_1" data-name="Laag 1" xmlns="http://www.w3.org/2000/svg" width="50.04mm" height="26.07mm" viewBox="0 0 141.83 73.9"><defs><style>.cls-1{fill:#fc1895;}.cls-2{opacity:0.9;}</style></defs><title>figment_icon</title><polygon class="cls-1" points="135.69 59.45 134.99 58.74 139.89 53.83 134.8 48.74 140.21 43.33 134.91 38.04 140.42 32.53 135.22 27.33 135.93 26.62 141.83 32.53 136.32 38.04 141.62 43.33 136.21 48.74 141.31 53.83 135.69 59.45"/><path class="cls-1" d="M1.58,74.86L1,60.23l13,6.79ZM2,61.92L2.51,73.09l9.44-6Z" transform="translate(-0.98 -0.96)"/><path class="cls-1" d="M30.21,10.73A4.88,4.88,0,1,1,35.1,5.84,4.89,4.89,0,0,1,30.21,10.73Zm0-8.77A3.88,3.88,0,1,0,34.1,5.84,3.89,3.89,0,0,0,30.21,2Z" transform="translate(-0.98 -0.96)"/><path class="cls-1" d="M92.41,23.25l-3.52-3.32L84.74,24,88,27.3Zm-16.86-9-4.65-.05-0.08,6.57,4.65,0.05ZM61.48,23.71l-4.06-4.15L54.11,22.8l4.06,3.88Z" transform="translate(-0.98 -0.96)"/><g class="cls-2"><path class="cls-1" d="M66,35a7.57,7.57,0,0,0,.78,3.57l-10,9.74a7.57,7.57,0,0,0-3.55-.86,7.11,7.11,0,1,0,7,7.2,7.57,7.57,0,0,0-.78-3.57l10-9.46a8.12,8.12,0,0,0,7.11.08l9.47,9.69a4.92,4.92,0,0,0-.86,3,7.11,7.11,0,1,0,7.2-7,7.57,7.57,0,0,0-3.57.78l-9.46-10a4.92,4.92,0,0,0,.86-3A7.11,7.11,0,0,0,66,35h0ZM56.75,54.31A3.28,3.28,0,1,1,53.51,51c1.92-.25,3.27,1.41,3.25,3.32h0Zm38.85,0.45a3.28,3.28,0,1,1-3.25-3.32c1.92-.25,3.27,1.41,3.25,3.32h0ZM76.4,35.1a3.28,3.28,0,1,1-3.25-3.32c1.92-.25,3.27,1.41,3.25,3.32h0Z" transform="translate(-0.98 -0.96)"/></g></svg>