<svg id="Laag_1" data-name="Laag 1" xmlns="http://www.w3.org/2000/svg" width="42.29mm" height="43.01mm" viewBox="0 0 119.89 121.91"><defs><style>.cls-1{opacity:0.9;}.cls-2{fill:#5f75dd;}</style></defs><title>figment_icon</title><g class="cls-1"><path class="cls-2" d="M67.82,35.17a17.66,17.66,0,0,0-7.68,3.68L32.71,21.46a17.66,17.66,0,0,0,.05-8.51A16.89,16.89,0,0,0,12.94.38,16.89,16.89,0,0,0,.38,20.2,16.89,16.89,0,0,0,20.2,32.76a17.66,17.66,0,0,0,7.68-3.68L54.69,46.61a17.66,17.66,0,0,0-.05,8.51,17.66,17.66,0,0,0,3.68,7.68L41.41,89.48c-1.52-1-4.78-.89-7.27-0.33a16.59,16.59,0,1,0,7.26,32.38A16.89,16.89,0,0,0,54,101.71,17.66,17.66,0,0,0,50.28,94L67.81,67.22c1.52,1,4.78.89,7.27,0.33a16.59,16.59,0,0,0-7.26-32.38h0ZM19,24.53a7.37,7.37,0,0,1-9.15-5.8,7.37,7.37,0,0,1,5.8-9.15,7.37,7.37,0,0,1,9.15,5.8c1.6,4.22-1.44,8.17-5.8,9.15h0Zm19.81,88.42A7.66,7.66,0,0,1,35.47,98a7.37,7.37,0,0,1,9.15,5.8c1.6,4.22-1.44,8.17-5.8,9.15h0ZM73.12,58.83A7.37,7.37,0,0,1,64,53a7.66,7.66,0,0,1,14.94-3.35c1.6,4.22-1.44,8.17-5.8,9.15h0Z"/><path class="cls-2" d="M108.62,88.81L114.27,79l-11.43-7.25L97,80.94Zm11.28-43.07-2.37-10.59L102.57,38.5l2.37,10.59ZM91,18.86L98.23,7.43l-9.15-5.8L82.46,12.92Z"/></g></svg>