<svg id="Laag_1" data-name="Laag 1" xmlns="http://www.w3.org/2000/svg" width="51.11mm" height="26.77mm" viewBox="0 0 144.88 75.9"><path class="cls-1" d="M96.21,53.75L83.75,43.08l10.5-12.26a5.5,5.5,0,1,0-8.36-7.15L75.4,35.93,65.22,27.22a5.5,5.5,0,1,0-7.15,8.36l10.18,8.71L59.36,54.66a5.5,5.5,0,1,0,8.36,7.15L76.6,51.44,89.05,62.11A5.5,5.5,0,1,0,96.21,53.75Z"/><polygon class="cls-2" points="26.87 18.34 20.29 11.75 13.83 18.21 7.12 11.49 0.71 17.9 0 17.2 7.12 10.08 13.83 16.79 20.29 10.34 26.87 16.93 33.08 10.72 39.85 17.48 39.14 18.19 33.08 12.13 26.87 18.34"/><path class="cls-2" d="M144.88,75.9l-16.07-6.82,13.94-10.5ZM130.8,68.83l12.88,5.47L142,60.41Z"/><path class="cls-2" d="M123.11,11.69a5.84,5.84,0,1,1,5.84-5.84A5.85,5.85,0,0,1,123.11,11.69Zm0-10.69a4.84,4.84,0,1,0,4.84,4.84A4.85,4.85,0,0,0,123.11,1Z"/></svg>