<svg id="Laag_1" data-name="Laag 1" xmlns="http://www.w3.org/2000/svg" width="51.06mm" height="25.6mm" viewBox="0 0 144.74 72.57"><defs><style>.cls-1,.cls-2{fill:#2afd74;}.cls-1{opacity:0.9;}</style></defs><title>portfolio_icon</title><path class="cls-1" d="M77.76,63.76A1.71,1.71,0,0,1,76.06,62L76.18,25.3a1.71,1.71,0,0,1,1.71-1.7h32.56a1.71,1.71,0,0,1,1.71,1.71V60.84a1.71,1.71,0,0,1-1.64,1.71L77.83,63.76H77.76Zm32.68-2.92h0ZM79.59,27L79.48,60.28l29.26-1.09V27H79.59Z" transform="translate(0.25 -2.81)"/><path class="cls-1" d="M67.12,63.76H67.05L34.37,62.54a1.71,1.71,0,0,1-1.64-1.71V25.3a1.71,1.71,0,0,1,1.71-1.71H67a1.71,1.71,0,0,1,1.71,1.7L68.82,62A1.71,1.71,0,0,1,67.12,63.76Zm-31-4.57L65.4,60.28,65.29,27H36.14V59.19Z" transform="translate(0.25 -2.81)"/><polygon class="cls-2" points="6.89 71.45 0 64.55 6.49 58.06 0.25 51.82 6.62 45.44 0.62 39.44 7.17 32.89 7.88 33.59 2.03 39.44 8.04 45.44 1.67 51.82 7.91 58.06 1.41 64.55 7.6 70.74 6.89 71.45"/><path class="cls-2" d="M144.48,75.39l-15.59-6.62,13.53-10.19Zm-13.61-6.86,12.4,5.27-1.64-13.37Z" transform="translate(0.25 -2.81)"/><path class="cls-2" d="M130.57,14.15a5.67,5.67,0,1,1,5.67-5.67A5.67,5.67,0,0,1,130.57,14.15Zm0-10.33a4.67,4.67,0,1,0,4.67,4.67A4.67,4.67,0,0,0,130.57,3.81Z" transform="translate(0.25 -2.81)"/></svg>