<svg id="Laag_1" data-name="Laag 1" xmlns="http://www.w3.org/2000/svg" width="58.98mm" height="37.83mm" viewBox="0 0 167.19 107.24"><defs><style>.cls-1,.cls-2{fill:#2afd74;}.cls-1{opacity:0.9;}</style></defs><title>Naamloos-7</title><path class="cls-1" d="M93.93,84.22a2,2,0,0,1-2-2l0.15-43a2,2,0,0,1,2-2h38.11a2,2,0,0,1,2,2V80.8a2,2,0,0,1-1.92,2L94,84.22H93.93Zm38.26-3.42h0ZM96.07,41.2L95.93,80.15l34.25-1.27V41.2H96.07Z"/><path class="cls-1" d="M81.46,84.22H81.39L43.13,82.8a2,2,0,0,1-1.92-2V39.2a2,2,0,0,1,2-2H81.31a2,2,0,0,1,2,2l0.15,43A2,2,0,0,1,81.46,84.22ZM45.2,78.88l34.25,1.27L79.32,41.2H45.2V78.88Z"/><polygon class="cls-2" points="7.12 90.58 0 83.46 6.71 76.75 0.26 70.29 6.85 63.7 0.64 57.5 7.41 50.73 8.11 51.44 2.06 57.5 8.26 63.7 1.67 70.29 8.13 76.75 1.41 83.46 7.82 89.87 7.12 90.58"/><path class="cls-2" d="M167.19,107.24l-16.07-6.82,13.94-10.5Zm-14.08-7.07L166,105.64l-1.7-13.89Z"/><path class="cls-2" d="M100.42,11.69a5.84,5.84,0,1,1,5.84-5.84A5.85,5.85,0,0,1,100.42,11.69Zm0-10.69a4.84,4.84,0,1,0,4.84,4.84A4.85,4.85,0,0,0,100.42,1Z"/></svg>