<svg id="Laag_1" data-name="Laag 1" xmlns="http://www.w3.org/2000/svg" width="5.55mm" height="4.95mm" viewBox="0 0 15.73 14.04"><defs><style>.cls-1{fill:#c7c7c7;}</style></defs><title>figment-logo</title><path class="cls-1" d="M5.81,6.13a2.23,2.23,0,0,0,.24,1l-2.9,2.9a2.23,2.23,0,0,0-1-.24,2.1,2.1,0,1,0,0,4.2,2.14,2.14,0,0,0,2.1-2.1,2.23,2.23,0,0,0-.24-1l2.9-2.82a2.39,2.39,0,0,0,2.1,0l2.82,2.82a1.45,1.45,0,0,0-.24.89,2.1,2.1,0,1,0,2.1-2.1,2.23,2.23,0,0,0-1,.24L9.76,7A1.45,1.45,0,0,0,10,6.13a2.1,2.1,0,0,0-4.2,0h0ZM3.15,11.86a0.93,0.93,0,0,1-1,1,1,1,0,1,1,0-1.94,0.89,0.89,0,0,1,1,1h0Zm11.46,0a1,1,0,1,1-1-1,0.89,0.89,0,0,1,1,1h0ZM8.88,6.13a1,1,0,1,1-1.94,0,0.93,0.93,0,0,1,1-1,0.89,0.89,0,0,1,1,1h0Z"/><path class="cls-1" d="M13.56,2.58l-1-1L11.3,2.82l1,1ZM8.55,0H7.18V1.94H8.55V0ZM4.44,2.82L3.23,1.61l-1,1L3.47,3.71Z"/></svg>