<svg id="Laag_1" data-name="Laag 1" xmlns="http://www.w3.org/2000/svg" width="9.53mm" height="14.55mm" viewBox="0 0 27.01 41.25"><defs><style>.cls-1{fill:#c7c7c7;}.cls-2{fill:#cfcfcf;}</style></defs><title>personal-logo</title><path class="cls-1" d="M24.56,12.25H0V0H24.56V12.25ZM0.5,11.75H24.06V0.5H0.5V11.75Z"/><path class="cls-1" d="M27,27H0V15.37H27V27ZM0.5,26.48h26V15.87H0.5V26.48Z"/><path class="cls-1" d="M19.59,41.25H0V29.64H19.59V41.25ZM0.5,40.75H19.09V30.14H0.5V40.75Z"/><path class="cls-2" d="M6.78,7.64a1,1,0,0,1-1,.72A1.53,1.53,0,0,1,4.58,7.8a2.24,2.24,0,0,1-.5-1.5,2.2,2.2,0,0,1,.53-1.55,1.72,1.72,0,0,1,1.33-.56,1.66,1.66,0,0,1,.93.24,1.6,1.6,0,0,1,.59.77l-0.73.17a0.94,0.94,0,0,0-.81-0.53,0.91,0.91,0,0,0-.75.39A1.67,1.67,0,0,0,4.85,6.3a1.7,1.7,0,0,0,.28,1,0.9,0.9,0,0,0,1.37.13,1,1,0,0,0,.25-0.71v0l-0.89,0V6.22H7.44V8.28H6.86Z"/><path class="cls-2" d="M10.43,7.74a0.93,0.93,0,0,1-.9.6,1,1,0,0,1-1-.62,1.36,1.36,0,0,1-.09-0.53V5.27H9.13V7.11a0.61,0.61,0,0,0,.14.44,0.46,0.46,0,0,0,.34.15A0.88,0.88,0,0,0,10,7.64a0.67,0.67,0,0,0,.24-0.18,1.11,1.11,0,0,0,.24-0.71V5.27h0.72v3H10.43V7.74Z"/><path class="cls-2" d="M12.25,4.31A0.42,0.42,0,0,1,12.37,4,0.52,0.52,0,0,1,13,4a0.41,0.41,0,0,1,.12.31,0.41,0.41,0,0,1-.12.31,0.52,0.52,0,0,1-.65,0A0.42,0.42,0,0,1,12.25,4.31Zm0.08,1h0.72v3H12.34v-3Z"/><path class="cls-2" d="M16.19,7.82a0.89,0.89,0,0,1-.84.55,1.21,1.21,0,0,1-.95-0.44A1.72,1.72,0,0,1,14,6.77a1.69,1.69,0,0,1,.38-1.14,1.17,1.17,0,0,1,.92-0.43,0.91,0.91,0,0,1,.83.45V4h0.72V8.28H16.28Zm-0.75-2a0.63,0.63,0,0,0-.51.25,1,1,0,0,0-.2.67,1,1,0,0,0,.21.68,0.64,0.64,0,0,0,1,0A0.74,0.74,0,0,0,16.14,7V6.56A0.76,0.76,0,0,0,15.93,6,0.65,0.65,0,0,0,15.45,5.85Z"/><path class="cls-2" d="M19.16,5.2a1.61,1.61,0,0,1,.56.1,1.17,1.17,0,0,1,.45.29,1.65,1.65,0,0,1,.42,1.2A1.63,1.63,0,0,1,20.17,8a1.33,1.33,0,0,1-1,.4,1.37,1.37,0,0,1-1-.4,1.62,1.62,0,0,1-.42-1.19,1.64,1.64,0,0,1,.42-1.2A1.37,1.37,0,0,1,19.16,5.2Zm0.71,1.58a1.17,1.17,0,0,0-.18-0.71,0.61,0.61,0,0,0-.51-0.24,0.67,0.67,0,0,0-.53.24,1.07,1.07,0,0,0-.21.71,1.15,1.15,0,0,0,.19.71,0.61,0.61,0,0,0,.51.24,0.67,0.67,0,0,0,.53-0.24A1.06,1.06,0,0,0,19.87,6.78Z"/><path class="cls-2" d="M4.71,20.25L5.4,22.53l0.69-2.28H6.93l-1.12,3H5l-1.12-3H4.71Z"/><path class="cls-2" d="M8.57,21.5a3.48,3.48,0,0,1,.83.12v-0.3a0.72,0.72,0,0,0-.13-0.47,0.51,0.51,0,0,0-.41-0.15,0.74,0.74,0,0,0-.44.11,0.38,0.38,0,0,0-.15.32H7.46a0.81,0.81,0,0,1,.36-0.74,1.89,1.89,0,0,1,1-.23,1.16,1.16,0,0,1,1.2.65,1.37,1.37,0,0,1,.09.53v1.91H9.49l-0.06-.4a1,1,0,0,1-.89.49,1.32,1.32,0,0,1-.9-0.29,0.89,0.89,0,0,1-.3-0.69,0.73,0.73,0,0,1,.33-0.64A1.56,1.56,0,0,1,8.57,21.5ZM9.4,22.08A2.61,2.61,0,0,0,8.72,22q-0.59,0-.59.4a0.37,0.37,0,0,0,.14.29,0.64,0.64,0,0,0,.44.12,0.66,0.66,0,0,0,.5-0.2A0.74,0.74,0,0,0,9.4,22.08Z"/><path class="cls-2" d="M11.91,20.77a1.09,1.09,0,0,1,1.79-.23,1.54,1.54,0,0,1,.28,1v1.76H13.25V21.5a0.71,0.71,0,0,0-.16-0.5,0.59,0.59,0,0,0-.45-0.17,0.62,0.62,0,0,0-.5.26,1.29,1.29,0,0,0-.22.78v1.39H11.19v-3h0.64Z"/><path class="cls-2" d="M18.56,22.79a0.9,0.9,0,0,1-.85.55,1.24,1.24,0,0,1-1-.44,1.7,1.7,0,0,1-.4-1.16,1.68,1.68,0,0,1,.38-1.14,1.2,1.2,0,0,1,.94-0.43,0.94,0.94,0,0,1,.85.45V19h0.74v4.24h-0.6Zm-0.76-2a0.64,0.64,0,0,0-.52.25,1,1,0,0,0-.21.67,1,1,0,0,0,.21.68,0.66,0.66,0,0,0,1,0,0.74,0.74,0,0,0,.22-0.54V21.54A0.76,0.76,0,0,0,18.3,21,0.67,0.67,0,0,0,17.8,20.83Z"/><path class="cls-2" d="M22.73,21.07a1.67,1.67,0,0,1,.08.48,2.76,2.76,0,0,1,0,.39H20.84a1,1,0,0,0,.18.59,0.59,0.59,0,0,0,.51.23,0.48,0.48,0,0,0,.54-0.4H22.8a1.08,1.08,0,0,1-.41.71,1.36,1.36,0,0,1-.86.27,1.3,1.3,0,0,1-1-.43,1.64,1.64,0,0,1-.41-1.16,1.62,1.62,0,0,1,.41-1.16,1.31,1.31,0,0,1,1-.42,1.17,1.17,0,0,1,1,.44A1.38,1.38,0,0,1,22.73,21.07Zm-1.2-.31A0.6,0.6,0,0,0,21,21a0.91,0.91,0,0,0-.2.52h1.28a0.68,0.68,0,0,0-.31-0.66A0.6,0.6,0,0,0,21.53,20.75Z"/><path class="cls-2" d="M7.35,34.82a1.13,1.13,0,0,1-.24.73,1.26,1.26,0,0,1-.69.42l1.08,1.63h-1L5.66,36H5.1v1.56H4.37v-4H5.85A1.65,1.65,0,0,1,7,33.93,1.1,1.1,0,0,1,7.35,34.82Zm-1.56.73a0.89,0.89,0,0,0,.61-0.18,0.62,0.62,0,0,0,.2-0.48,0.65,0.65,0,0,0-.18-0.48,0.77,0.77,0,0,0-.56-0.18H5.1v1.33H5.79Z"/><path class="cls-2" d="M8.33,33.63a0.41,0.41,0,0,1,.12-0.31,0.54,0.54,0,0,1,.66,0,0.46,0.46,0,0,1,0,.62,0.54,0.54,0,0,1-.66,0A0.41,0.41,0,0,1,8.33,33.63Zm0.09,1H9.14v3H8.41v-3Z"/><path class="cls-2" d="M12.71,35.42a1.67,1.67,0,0,1,.08.48,2.75,2.75,0,0,1,0,.39H10.82a1,1,0,0,0,.18.59,0.59,0.59,0,0,0,.51.23,0.48,0.48,0,0,0,.54-0.4h0.74a1.08,1.08,0,0,1-.41.71,1.36,1.36,0,0,1-.86.27,1.3,1.3,0,0,1-1-.43,1.64,1.64,0,0,1-.41-1.16,1.62,1.62,0,0,1,.41-1.16,1.31,1.31,0,0,1,1-.42,1.17,1.17,0,0,1,1,.44A1.38,1.38,0,0,1,12.71,35.42Zm-1.2-.32a0.6,0.6,0,0,0-.48.2,0.91,0.91,0,0,0-.2.52H12.1a0.68,0.68,0,0,0-.31-0.66A0.6,0.6,0,0,0,11.51,35.1Z"/><path class="cls-2" d="M15.35,37.53a1.89,1.89,0,0,1-.64.16,1.36,1.36,0,0,1-.41-0.06A0.94,0.94,0,0,1,14,37.47a0.89,0.89,0,0,1-.28-0.7V35.09H13.28V34.6H13.7V33.81h0.73V34.6h0.82v0.49H14.43v1.66a0.32,0.32,0,0,0,.35.37,1.5,1.5,0,0,0,.46-0.1Z"/></svg>